<?xml version="1.0" encoding="UTF-8"?>
<svg version="1.1" xmlns="http://www.w3.org/2000/svg" id="a" width="1718" height="250" viewBox="0 0 1718 250">
<path d="M0 0 C5.81740213 5.5677748 10.44300877 12.61930816 13.0625 20.25 C13.0625 21.24 13.0625 22.23 13.0625 23.25 C14.0525 23.25 15.0425 23.25 16.0625 23.25 C16.23265625 22.06921875 16.4028125 20.8884375 16.578125 19.671875 C16.82205923 18.11444879 17.0668985 16.55716415 17.3125 15 C17.42207031 14.22269531 17.53164062 13.44539063 17.64453125 12.64453125 C18.40133515 7.98421247 19.1082584 5.22334446 23.0625 2.25 C29.77190783 -1.10470391 41.10937512 1.39575524 48.4375 2.0625 C49.28103027 2.13251221 50.12456055 2.20252441 50.99365234 2.2746582 C57.01914443 2.87267607 62.42937983 3.75067659 66.984375 8.07421875 C68.37776194 10.88623514 68.39283002 12.9336459 68.3125 16.0625 C68.28671875 17.11566406 68.2609375 18.16882812 68.234375 19.25390625 C68.03954123 22.65021303 67.67072182 25.90477997 67.0625 29.25 C68.09375 29.20875 69.125 29.1675 70.1875 29.125 C74.0625 29.25 74.0625 29.25 77.1875 30.3125 C79.93043819 31.4746388 79.93043819 31.4746388 82.28515625 30.76660156 C87.73835356 29.75227618 93.37128648 31.02131945 98.83691406 31.71875 C101.05383451 31.99890493 103.27255434 32.25796267 105.4921875 32.515625 C106.91161707 32.69143142 108.33089421 32.86847384 109.75 33.046875 C111.67392578 33.28422363 111.67392578 33.28422363 113.63671875 33.52636719 C118.08157276 34.46526024 120.87137139 36.05887139 124.0625 39.25 C125.81770201 46.0837144 124.50669259 52.82970705 123.62890625 59.734375 C123.38939235 61.70891657 123.14987963 63.68345829 122.91043758 65.65800858 C122.574593 68.40802071 122.23030713 71.15695252 121.88623047 73.90594482 C121.28401298 78.73339335 120.69637797 83.56264299 120.10691833 88.3916626 C119.79260351 90.95951848 119.47551421 93.52703654 119.15541077 96.09417725 C119.01203781 97.25258118 118.86866486 98.41098511 118.72094727 99.60449219 C118.59357681 100.62484558 118.46620636 101.64519897 118.3349762 102.69647217 C118.00944828 105.31917354 118.00944828 105.31917354 118.0625 108.25 C120.3725 108.58 122.6825 108.91 125.0625 109.25 C125.12719482 108.62585205 125.19188965 108.0017041 125.25854492 107.35864258 C126.7452774 93.17151384 128.39904523 79.00529693 130.24111938 64.85995483 C130.4547488 63.20814565 130.66438863 61.55581541 130.8699646 59.90298462 C131.16242082 57.56130002 131.46991333 55.22205207 131.78125 52.8828125 C131.8656282 52.1848909 131.95000641 51.4869693 132.03694153 50.76789856 C132.76444018 45.49721528 134.30725474 42.00524526 138.0625 38.25 C142.59141111 37.12301449 146.43628918 37.34022741 151.03515625 37.95703125 C151.68068954 38.04248703 152.32622284 38.12794281 152.99131775 38.21598816 C154.34741103 38.39761594 155.70292983 38.58358099 157.05786133 38.77368164 C159.12116233 39.06196381 161.18616207 39.33372307 163.25195312 39.60351562 C176.09778734 41.34411329 176.09778734 41.34411329 180.8125 44.375 C184.85044491 50.43191736 182.79776115 59.462974 182.0625 66.25 C182.59617187 65.59773438 183.12984375 64.94546875 183.6796875 64.2734375 C192.70986885 53.68094103 201.86750028 48.57185857 215.7421875 46.93359375 C223.87323069 46.55961402 231.36124655 48.92195577 239.0625 51.25 C239.14290527 50.63592285 239.22331055 50.0218457 239.30615234 49.38916016 C239.67982401 46.55064141 240.0586369 43.71283032 240.4375 40.875 C240.56382812 39.90949219 240.69015625 38.94398437 240.8203125 37.94921875 C243.17819149 20.38302028 243.17819149 20.38302028 246.0625 16.6875 C252.15784882 12.30646803 259.98430651 14.1325785 267.0234375 15.203125 C269.49638065 15.62623217 271.96773944 16.05869482 274.4375 16.5 C275.69433594 16.70496094 276.95117188 16.90992188 278.24609375 17.12109375 C279.45136719 17.33378906 280.65664062 17.54648437 281.8984375 17.765625 C282.98688965 17.95415039 284.0753418 18.14267578 285.19677734 18.33691406 C288.4838332 19.38424656 289.90661007 20.59193237 292.0625 23.25 C292.890625 25.609375 292.890625 25.609375 293.3125 28 C293.53679687 29.19882813 293.53679687 29.19882813 293.765625 30.421875 C293.91257812 31.32679687 293.91257812 31.32679687 294.0625 32.25 C294.80693359 31.63511719 294.80693359 31.63511719 295.56640625 31.0078125 C303.21593661 24.94044306 310.35921669 23.2066362 320.0625 24.25 C328.47511614 26.24008124 334.8890249 29.80713485 339.9375 36.875 C343.06701385 43.48175146 343.22741186 51.66474996 340.875 58.5625 C339.23336528 62.3903502 336.87784323 65.2063857 334.0625 68.25 C334.38734375 68.82621094 334.7121875 69.40242188 335.046875 69.99609375 C337.78932161 76.08221564 335.81922972 83.40553385 334.5 89.671875 C334.06241377 92.25050813 333.98739568 94.64012489 334.0625 97.25 C334.619375 96.59773438 335.17625 95.94546875 335.75 95.2734375 C343.31703437 86.607138 350.05362403 80.85605701 361.0625 77.25 C361.74699219 77.023125 362.43148438 76.79625 363.13671875 76.5625 C378.95912189 72.22264085 397.97343718 75.58633708 412.21484375 83.36328125 C423.91483609 91.11512803 431.61101877 100.8955563 436.0625 114.25 C436.475 113.74210938 436.8875 113.23421875 437.3125 112.7109375 C446.11868412 102.21428053 455.36675162 97.15976571 469.0625 95.25 C485.70573453 93.87844977 504.39698495 98.93478842 517.6328125 109.25390625 C526.84106936 117.15651475 532.45532786 125.01676737 534.0625 137.25 C534.18166361 143.35117665 533.71066015 149.16863408 530.0625 154.25 C526.1820178 156.62140579 522.5241887 156.42496818 518.0625 156.25 C518.9596875 157.3946875 518.9596875 157.3946875 519.875 158.5625 C524.08588723 164.90130889 526.22660726 173.72298827 525.0625 181.25 C522.78207143 191.90557396 518.82695943 199.96689091 510 206.5625 C495.99662281 215.01159649 478.83241478 215.18686515 463.25 211.6875 C448.02534127 207.84344111 434.67971257 200.03899218 426.24609375 186.46875 C424.47698527 183.15240143 423.23114311 179.82085394 422.0625 176.25 C421.5778125 176.69730469 421.093125 177.14460937 420.59375 177.60546875 C409.57846702 187.54040666 397.23451186 193.43157993 382.0625 193.25 C363.4902857 191.92632245 348.09739167 186.75967249 335.0625 173.25 C329.32861908 166.57506229 326.39622105 159.68618419 324.0625 151.25 C323.93198242 151.89549805 323.80146484 152.54099609 323.66699219 153.20605469 C323.06442034 156.14082232 322.43874542 159.07019687 321.8125 162 C321.50505859 163.52367187 321.50505859 163.52367187 321.19140625 165.078125 C320.97871094 166.0578125 320.76601562 167.0375 320.546875 168.046875 C320.35834961 168.94760742 320.16982422 169.84833984 319.97558594 170.77636719 C318.86701437 173.77958835 317.52930946 175.2340026 315.0625 177.25 C307.57645006 179.23236863 300.35749995 177.40127521 292.875 176 C291.61751953 175.78214844 290.36003906 175.56429687 289.06445312 175.33984375 C278.5132958 173.41940958 278.5132958 173.41940958 274.0625 170.25 C272.25 167.5625 272.25 167.5625 271.0625 165.25 C270.546875 165.889375 270.03125 166.52875 269.5 167.1875 C266.31544843 169.88212056 264.19347161 169.90790766 260.0625 170.25 C256.63745117 169.9362793 256.63745117 169.9362793 253.10546875 169.32421875 C251.82865234 169.10443359 250.55183594 168.88464844 249.23632812 168.65820312 C248.58220947 168.53968994 247.92809082 168.42117676 247.25415039 168.29907227 C245.24002074 167.93569962 243.22313864 167.59274089 241.20507812 167.25195312 C231.32504618 165.51254618 231.32504618 165.51254618 229.0625 163.25 C226.92707368 163.45337394 224.79206307 163.66727771 222.6640625 163.9375 C210.56939275 165.39031318 197.89555558 163.32672065 187.9375 155.875 C186.61232862 154.7035082 185.31722655 153.49664891 184.0625 152.25 C183.50304688 151.70472656 182.94359375 151.15945312 182.3671875 150.59765625 C178.14391026 146.08787528 175.60326589 140.83743649 173.0625 135.25 C171.32551733 136.98698267 171.60363188 139.57059785 171.3125 141.9375 C170.40313309 147.59578296 169.41729158 150.50285375 165.0625 154.25 C159.274088 156.0129172 153.49294265 154.61367842 147.62475586 153.78125 C145.6362282 153.50157916 143.64576086 153.24219517 141.65429688 152.984375 C140.38779297 152.8090625 139.12128906 152.63375 137.81640625 152.453125 C136.66470947 152.29489258 135.5130127 152.13666016 134.32641602 151.97363281 C130.86842508 151.20697224 128.18911243 149.88138613 125.0625 148.25 C122.88460647 148.3043964 122.88460647 148.3043964 120.875 149.0625 C109.43760681 152.08836609 96.41380036 149.96966428 86 144.3125 C81.28908669 141.00483747 77.06343429 137.40481638 73.0625 133.25 C73.000625 133.9925 72.93875 134.735 72.875 135.5 C71.79977351 139.13922812 70.2010222 140.20631113 67.0625 142.25 C55.13566017 145.97570301 39.38941719 143.79483758 28.0625 139.25 C24.98444348 137.57325649 22.55039628 135.70820778 20.0625 133.25 C19.51207031 132.73695313 18.96164062 132.22390625 18.39453125 131.6953125 C10.25903498 123.29867684 9.38885797 112.42776061 9.0625 101.25 C8.8665625 101.92804688 8.670625 102.60609375 8.46875 103.3046875 C4.5021593 115.64899132 -2.50299636 123.256512 -13.9375 129.25 C-33.38770529 138.30142768 -56.43056617 136.5280208 -76.24609375 129.65625 C-90.16968073 124.35202639 -101.19681708 115.74924564 -107.9375 102.25 C-111.76811053 93.03152777 -114.02568726 83.30574305 -110.6875 73.625 C-108.78332771 71.04076618 -107.88729087 70.37218926 -104.9375 69.25 C-102.09667969 69.02294922 -102.09667969 69.02294922 -98.859375 69.0546875 C-97.69921875 69.06113281 -96.5390625 69.06757812 -95.34375 69.07421875 C-93.53390625 69.09935547 -93.53390625 69.09935547 -91.6875 69.125 C-90.46546875 69.13402344 -89.2434375 69.14304687 -87.984375 69.15234375 C-84.96855218 69.17590487 -81.95312508 69.20880294 -78.9375 69.25 C-79.783125 68.64414063 -80.62875 68.03828125 -81.5 67.4140625 C-92.42647009 59.41873047 -100.15295255 51.63489662 -103.9375 38.25 C-104.12957031 37.58871094 -104.32164063 36.92742187 -104.51953125 36.24609375 C-106.52863897 26.65119613 -104.59328571 16.28511288 -99.5625 7.9375 C-98.70472613 6.69625076 -97.83068195 5.46601879 -96.9375 4.25 C-96.23625 3.239375 -95.535 2.22875 -94.8125 1.1875 C-88.44776329 -6.11205741 -78.99331474 -10.00833132 -69.9375 -12.75 C-69.23882813 -12.96398437 -68.54015625 -13.17796875 -67.8203125 -13.3984375 C-45.47560866 -19.59034338 -17.97762592 -14.84446946 0 0 Z M-53.9375 28.25 C-52.58132469 31.54098541 -51.44820249 32.86395119 -48.2421875 34.390625 C-47.52675781 34.73867187 -46.81132813 35.08671875 -46.07421875 35.4453125 C-45.32785156 35.79335937 -44.58148437 36.14140625 -43.8125 36.5 C-43.05839844 36.86351562 -42.30429688 37.22703125 -41.52734375 37.6015625 C-39.66928414 38.49531269 -37.80405182 39.37412375 -35.9375 40.25 C-34.64947317 37.67394633 -35.09060281 36.53552023 -35.6875 33.75 C-35.84734375 32.9559375 -36.0071875 32.161875 -36.171875 31.34375 C-36.83472194 28.89172711 -36.83472194 28.89172711 -39.9375 27.25 C-45.37185334 26.18094688 -48.72336884 26.03399426 -53.9375 28.25 Z M-22.9375 45.25 C-20.67526235 46.94667824 -18.38547418 48.6113663 -16.01953125 50.16015625 C-5.32382548 57.20117641 4.66694873 65.19360952 7.50683594 78.30078125 C8.48981231 83.26428343 9.30440548 88.24772482 10.0625 93.25 C10.3925 93.25 10.7225 93.25 11.0625 93.25 C11.40403092 89.95913156 11.73416646 86.66720923 12.0625 83.375 C12.15789062 82.4571875 12.25328125 81.539375 12.3515625 80.59375 C12.95660312 74.45690947 13.18315893 68.41533625 13.0625 62.25 C12.46880615 62.06123291 11.8751123 61.87246582 11.26342773 61.67797852 C5.53789602 59.80807359 5.53789602 59.80807359 3.625 57.5625 C2.80326862 54.184271 2.49373568 50.69988542 2.0625 47.25 C-6.1875 46.59 -14.4375 45.93 -22.9375 45.25 Z M289.0625 53.25 C288.7325 57.21 288.4025 61.17 288.0625 65.25 C289.7125 63.6 291.3625 61.95 293.0625 60.25 C292.0725 57.94 291.0825 55.63 290.0625 53.25 C289.7325 53.25 289.4025 53.25 289.0625 53.25 Z M287.0625 65.25 C288.0625 67.25 288.0625 67.25 288.0625 67.25 Z M63.0625 67.25 C61.00542378 78.84840848 60.05123931 90.52186878 59.0625 102.25 C62.0325 102.58 65.0025 102.91 68.0625 103.25 C70.11957622 91.65159152 71.07376069 79.97813122 72.0625 68.25 C69.0925 67.92 66.1225 67.59 63.0625 67.25 Z M-61.9375 77.25 C-61.8332837 83.96357457 -61.8332837 83.96357457 -59 89.8125 C-55.25305075 92.42401008 -52.87592219 92.35723943 -48.3125 92.3125 C-46.52972656 92.29896484 -46.52972656 92.29896484 -44.7109375 92.28515625 C-43.33808594 92.26775391 -43.33808594 92.26775391 -41.9375 92.25 C-41.6075 90.6 -41.2775 88.95 -40.9375 87.25 C-47.67012409 82.8686828 -54.29432394 79.720228 -61.9375 77.25 Z M226.0625 90.25 C219.93031866 97.40421157 218.92467483 104.168176 218.875 113.4375 C218.86082031 114.64792969 218.84664062 115.85835937 218.83203125 117.10546875 C218.81493337 120.41208002 218.81493337 120.41208002 221.0625 123.25 C224.14615871 123.5002157 224.14615871 123.5002157 227.0625 123.25 C228.63498734 120.39738308 229.43434172 117.94661076 229.9140625 114.73046875 C230.04296875 113.87259766 230.171875 113.01472656 230.3046875 112.13085938 C230.43101562 111.24205078 230.55734375 110.35324219 230.6875 109.4375 C230.8215625 108.56029297 230.955625 107.68308594 231.09375 106.77929688 C231.811959 101.88008545 232.21107461 97.20023596 232.0625 92.25 C230.0825 91.59 228.1025 90.93 226.0625 90.25 Z M332.0625 98.25 C333.0625 100.25 333.0625 100.25 333.0625 100.25 Z M378.0078125 118.87109375 C372.47280746 125.63980474 371.62301057 135.23796354 371.53125 143.69140625 C372.21297068 146.97469337 373.48183765 148.17311336 376.0625 150.25 C378.51738934 151.25026314 378.51738934 151.25026314 381.0625 150.25 C387.82746183 142.70745635 388.28292478 133.74441559 388.328125 124.10546875 C388.27196819 121.0493499 388.27196819 121.0493499 386.0625 118.25 C381.77689764 116.82849005 381.77689764 116.82849005 378.0078125 118.87109375 Z M435.0625 147.25 C434.7325 148.9 434.4025 150.55 434.0625 152.25 C436.5375 152.745 436.5375 152.745 439.0625 153.25 C438.0725 151.27 437.0825 149.29 436.0625 147.25 C435.7325 147.25 435.4025 147.25 435.0625 147.25 Z " fill="#C78030" transform="translate(1183.9375,30.75)"/>
<path d="M0 0 C2.40856507 3.05958751 2.90656711 5.89287295 3.43945312 9.64526367 C3.61448112 10.74673988 3.61448112 10.74673988 3.79304504 11.87046814 C4.18152745 14.37718026 4.53886098 16.88677584 4.88867188 19.39916992 C5.08272614 20.78304901 5.08272614 20.78304901 5.28070068 22.19488525 C6.26214445 29.27756585 7.17395346 36.36853842 8.07617188 43.46166992 C8.35119867 45.60038861 8.62658704 47.73906084 8.90234375 49.87768555 C9.56861125 55.05098895 10.23002273 60.22489129 10.88867188 65.39916992 C12.76243259 62.58852886 14.0491555 59.90033534 15.45117188 56.83666992 C21.43943835 44.8311381 30.97771828 35.65164137 43.69287109 31.18945312 C60.28431771 25.6932591 77.7659811 25.00742927 93.88867188 32.39916992 C106.41201485 39.44446579 114.37683271 50.3559615 118.4140625 63.93969727 C119.89606809 69.58344401 120.69372299 75.29229876 121.32617188 81.08666992 C121.41954834 81.93624268 121.5129248 82.78581543 121.60913086 83.66113281 C122.06945998 88.92512547 121.99655335 92.81222447 118.51367188 97.08666992 C116.74068757 98.51869571 114.93473402 99.40981889 112.88867188 100.39916992 C113.38238281 100.88385742 113.87609375 101.36854492 114.38476562 101.86791992 C120.27922752 108.03516375 120.27922752 108.03516375 121.07617188 112.46166992 C120.71740337 119.99580854 116.38938061 124.46909323 111.15429688 129.48120117 C97.54295523 141.00390591 79.3217808 145.44324771 61.77392578 144.25610352 C45.8943235 142.55296425 32.20056565 135.44688087 21.94335938 123.04760742 C20.53595378 121.1950689 19.20274042 119.31781669 17.88867188 117.39916992 C18.04464844 118.59413086 18.200625 119.7890918 18.36132812 121.02026367 C18.55848282 122.62566618 18.75506682 124.23113885 18.95117188 125.83666992 C19.05494141 126.61977539 19.15871094 127.40288086 19.265625 128.2097168 C20.84640486 141.45556185 20.84640486 141.45556185 17.25195312 146.86010742 C14.21399886 148.83854375 11.64596161 149.39308888 8.07617188 150.02416992 C7.42108643 150.14115234 6.76600098 150.25813477 6.09106445 150.37866211 C4.02634864 150.73834295 1.95856952 151.07075396 -0.11132812 151.39916992 C-0.77261719 151.51035156 -1.43390625 151.6215332 -2.11523438 151.73608398 C-8.37094983 152.77766683 -14.24051717 153.71945199 -20.54882812 152.77416992 C-24.95375812 152.15110417 -27.19772272 153.06623579 -30.97851562 155.27807617 C-42.86257875 161.5248273 -57.3057001 161.57511365 -70.01367188 158.45385742 C-75.86681637 156.46098351 -79.85370931 152.73419999 -84.11132812 148.39916992 C-84.04945313 149.97698242 -84.04945313 149.97698242 -83.98632812 151.58666992 C-84.12340322 155.76746027 -84.68149062 158.56219225 -87.26367188 161.87963867 C-95.75777358 168.86527412 -112.22509981 170.77037475 -122.66210938 170.20776367 C-132.39485097 168.96170333 -140.48461503 165.8146366 -146.99023438 158.19995117 C-157.00086072 143.4046635 -157.77522542 123.38497559 -160.60229492 106.13208008 C-161.06132198 103.32057758 -161.06132198 103.32057758 -162.11132812 100.39916992 C-162.77132812 100.39916992 -163.43132812 100.39916992 -164.11132812 100.39916992 C-163.19407441 105.37677944 -162.27005422 110.35307339 -161.34033203 115.32836914 C-161.02639455 117.01326296 -160.71415802 118.69847479 -160.40380859 120.3840332 C-158.81267225 129.01942367 -157.16179881 137.63704376 -155.12695312 146.18041992 C-154.83594727 147.40825195 -154.54494141 148.63608398 -154.24511719 149.90112305 C-152.96825093 153.84060189 -151.22339619 156.84661796 -149.11132812 160.39916992 C-147.88210061 164.7892682 -147.93376316 167.37067474 -150.11132812 171.39916992 C-152.48929894 174.34284166 -154.53408857 174.99388842 -158.19726562 175.75073242 C-159.20490967 175.96181641 -160.21255371 176.17290039 -161.25073242 176.39038086 C-162.318479 176.59953125 -163.38622559 176.80868164 -164.48632812 177.02416992 C-165.57018799 177.24363281 -166.65404785 177.4630957 -167.77075195 177.68920898 C-174.39907257 178.99034033 -180.86732831 179.99691267 -187.62304688 180.25854492 C-191.79925107 180.49456274 -194.57796592 181.07262163 -198.17382812 183.27416992 C-207.74211482 188.93661173 -219.77999593 189.89243321 -230.50585938 187.70776367 C-241.19371367 184.73407662 -248.66785501 179.48886096 -256.11132812 171.39916992 C-256.53091797 172.34276367 -256.53091797 172.34276367 -256.95898438 173.30541992 C-262.85591098 185.89564263 -271.9823466 194.29517845 -284.92407227 199.53881836 C-296.91151424 203.79709314 -309.35274471 206.51715816 -321.72924805 209.38549805 C-325.56800587 210.27863186 -329.40107008 211.19388863 -333.234375 212.11010742 C-335.69174199 212.68437498 -338.14941419 213.25733843 -340.60742188 213.82885742 C-341.74400742 214.10269257 -342.88059296 214.37652771 -344.05162048 214.65866089 C-350.10189772 216.03676049 -355.04818586 216.9910275 -361.11132812 215.39916992 C-364.43840185 212.66580005 -365.70719859 210.49220811 -366.68656921 206.33366394 C-366.93463318 205.31175461 -367.18269714 204.28984528 -367.4382782 203.23696899 C-367.69349747 202.12155731 -367.94871674 201.00614563 -368.21166992 199.85693359 C-368.49350128 198.67765793 -368.77533264 197.49838226 -369.06570435 196.28337097 C-369.83435371 193.05413385 -370.59003622 189.82237883 -371.33991599 186.58876586 C-372.1288742 183.19974185 -372.93375507 179.81450234 -373.73677063 176.42878723 C-375.08349195 170.74070884 -376.4195807 165.05022152 -377.74829102 159.35791016 C-379.61868299 151.3451364 -381.50923933 143.33721931 -383.4033674 135.33002889 C-384.71784917 129.76968605 -386.02730862 124.20815878 -387.33594155 118.64643693 C-387.65237653 117.30177122 -387.9689683 115.9571424 -388.28571677 114.6125505 C-389.32833683 110.18601253 -390.36515392 105.75814752 -391.39916992 101.32958984 C-391.66046188 100.22025085 -391.92175385 99.11091187 -392.19096375 97.96795654 C-395.83430569 82.30052955 -395.83430569 82.30052955 -393.11132812 77.39916992 C-390.75922228 74.52256754 -388.75976293 73.80253564 -385.171875 72.98876953 C-383.66385315 72.63841896 -383.66385315 72.63841896 -382.12536621 72.2809906 C-381.03792114 72.04026321 -379.95047607 71.79953583 -378.83007812 71.55151367 C-377.70621704 71.29414932 -376.58235596 71.03678497 -375.42443848 70.7716217 C-371.82231204 69.94971387 -368.21689608 69.1433304 -364.61132812 68.33666992 C-362.21267393 67.790094 -359.8142336 67.24257859 -357.41601562 66.6940918 C-355.09589121 66.1665712 -352.77558409 65.63985334 -350.45507812 65.11401367 C-349.3838269 64.87126205 -348.31257568 64.62851044 -347.2088623 64.37840271 C-327.38509837 59.94618398 -304.61492967 55.84667764 -286.17382812 67.08666992 C-275.45197062 75.15840793 -270.05660946 85.2385011 -268.11132812 98.39916992 C-267.55972538 105.23904391 -269.15506962 110.87155088 -271.11132812 117.39916992 C-271.45306354 118.73037456 -271.78976119 120.06295003 -272.11132812 121.39916992 C-271.59183594 121.75108398 -271.07234375 122.10299805 -270.53710938 122.46557617 C-265.60197972 125.95939254 -262.37034615 129.30695426 -259.11132812 134.39916992 C-256.2371269 131.68312278 -256.2371269 131.68312278 -254.11132812 128.39916992 C-255.18382812 128.15166992 -256.25632812 127.90416992 -257.36132812 127.64916992 C-261.1479146 126.38697443 -262.6833969 125.48077493 -265.11132812 122.39916992 C-267.81705421 114.28199168 -266.83491831 104.0705129 -263.11132812 96.39916992 C-253.46407005 81.67324036 -240.07767184 73.82086262 -223.11914062 70.15698242 C-207.1362098 67.00940956 -191.87245021 68.22508853 -178.11132812 77.39916992 C-178.31757813 76.34729492 -178.52382812 75.29541992 -178.73632812 74.21166992 C-179.18759099 69.62383078 -178.49850096 67.34121189 -175.86132812 63.64916992 C-173.40725205 61.89625844 -171.06658717 61.72753204 -168.11132812 61.39916992 C-168.32789063 60.49038086 -168.32789063 60.49038086 -168.54882812 59.56323242 C-169.54026306 55.08800526 -170.32137713 50.67015211 -170.54882812 46.08666992 C-170.58878906 45.30678711 -170.62875 44.5269043 -170.66992188 43.72338867 C-169.80868733 40.13993027 -167.91476673 38.73764009 -165.11132812 36.39916992 C-162.35014416 35.54112654 -159.9641484 34.96337893 -157.14257812 34.52807617 C-156.38464966 34.39723129 -155.62672119 34.26638641 -154.8458252 34.13157654 C-153.25055609 33.86090433 -151.65358661 33.60008816 -150.05517578 33.34863281 C-147.6144098 32.96215788 -145.18191033 32.53964443 -142.74804688 32.11206055 C-141.19241589 31.85273866 -139.63643496 31.5955056 -138.08007812 31.34057617 C-136.99394226 31.15175621 -136.99394226 31.15175621 -135.88586426 30.9591217 C-131.67688921 30.31851372 -128.86782083 30.31980541 -125.11132812 32.39916992 C-120.55183758 36.56784699 -119.84389148 41.51048754 -119.11132812 47.39916992 C-118.98632812 51.02416992 -118.98632812 51.02416992 -119.11132812 53.39916992 C-117.52775354 53.08789476 -115.94447819 52.77509703 -114.36132812 52.46166992 C-113.47960937 52.28764648 -112.59789062 52.11362305 -111.68945312 51.93432617 C-109.47897759 51.47548504 -107.29620744 50.96580918 -105.11132812 50.39916992 C-105.27181641 48.66280273 -105.27181641 48.66280273 -105.43554688 46.89135742 C-105.5575401 45.35236596 -105.67858367 43.81329901 -105.79882812 42.27416992 C-105.87166016 41.51362305 -105.94449219 40.75307617 -106.01953125 39.96948242 C-106.38270115 35.0132815 -106.32659345 31.46500262 -103.11132812 27.39916992 C-96.16144606 23.48086567 -87.10586027 23.13921165 -79.36132812 22.08666992 C-77.41033203 21.79566406 -77.41033203 21.79566406 -75.41992188 21.4987793 C-74.16824219 21.32540039 -72.9165625 21.15202148 -71.62695312 20.97338867 C-69.92974121 20.73495239 -69.92974121 20.73495239 -68.19824219 20.49169922 C-64.19934825 20.37183361 -61.55932475 21.31886682 -58.37304688 23.69604492 C-54.5883322 28.80482386 -54.83783811 37.24564458 -55.11132812 43.39916992 C-54.33789062 43.15166992 -54.33789062 43.15166992 -53.54882812 42.89916992 C-50.38145736 42.24945284 -47.33690533 42.36905952 -44.11132812 42.39916992 C-44.42243442 39.54484521 -44.73517239 36.69071467 -45.04882812 33.83666992 C-45.13583984 33.03680664 -45.22285156 32.23694336 -45.3125 31.4128418 C-45.71208496 27.78697823 -46.14304799 24.17848068 -46.66210938 20.56713867 C-47.35819549 15.65821835 -47.90283429 11.27378978 -45.92382812 6.58666992 C-42.23312313 2.13237079 -38.1536598 0.97384523 -32.56054688 0.19604492 C-31.30435547 0.02073242 -30.04816406 -0.15458008 -28.75390625 -0.33520508 C-26.79614258 -0.59043945 -26.79614258 -0.59043945 -24.79882812 -0.85083008 C-23.50525391 -1.03645508 -22.21167969 -1.22208008 -20.87890625 -1.41333008 C-4.73864115 -3.59288506 -4.73864115 -3.59288506 0 0 Z M-44.17382812 80.39916992 C-45.09292969 80.58479492 -46.01203125 80.77041992 -46.95898438 80.96166992 C-48.02439453 81.17823242 -48.02439453 81.17823242 -49.11132812 81.39916992 C-46.90336719 98.94241291 -46.90336719 98.94241291 -44.11132812 116.39916992 C-38.66632813 115.90416992 -38.66632813 115.90416992 -33.11132812 115.39916992 C-34.24259289 103.27467344 -35.81431615 91.35894561 -38.11132812 79.39916992 C-40.14914962 79.39916992 -42.18627731 79.99662799 -44.17382812 80.39916992 Z M-112.11132812 91.39916992 C-111.51574343 99.38239114 -110.41533625 107.20148347 -109.04882812 115.08666992 C-108.86255859 116.18172852 -108.67628906 117.27678711 -108.484375 118.4050293 C-108.03044572 121.07040891 -107.57271172 123.73507241 -107.11132812 126.39916992 C-106.27988281 126.31538086 -105.4484375 126.2315918 -104.59179688 126.14526367 C-102.96177734 125.99250977 -102.96177734 125.99250977 -101.29882812 125.83666992 C-100.21988281 125.73225586 -99.1409375 125.6278418 -98.02929688 125.52026367 C-95.11132812 125.39916992 -95.11132812 125.39916992 -92.11132812 126.39916992 C-92.80158827 121.61146473 -93.49544081 116.8242992 -94.19262695 112.03759766 C-94.42929296 110.40916034 -94.66497685 108.78057998 -94.8996582 107.15185547 C-95.23716228 104.8107331 -95.57819549 102.47014797 -95.91992188 100.12963867 C-96.02412949 99.40141403 -96.1283371 98.67318939 -96.23570251 97.92289734 C-96.6707441 94.96336628 -97.16295381 92.24429288 -98.11132812 89.39916992 C-103.17695195 89.14588873 -107.26891179 90.06333093 -112.11132812 91.39916992 Z M-337.11132812 106.39916992 C-336.45132813 109.69916992 -335.79132813 112.99916992 -335.11132812 116.39916992 C-326.73113182 114.99796484 -326.73113182 114.99796484 -319.11132812 111.39916992 C-317.77828115 108.50730206 -317.77828115 108.50730206 -319.04882812 106.21166992 C-319.39945313 105.61354492 -319.75007813 105.01541992 -320.11132812 104.39916992 C-326.20913813 104.17832368 -331.32775748 104.38749317 -337.11132812 106.39916992 Z M-208.11132812 142.39916992 C-210.15130003 143.76240736 -210.15130003 143.76240736 -212.11132812 145.39916992 C-212.11132812 146.05916992 -212.11132812 146.71916992 -212.11132812 147.39916992 C-209.63866048 147.05472111 -209.63866048 147.05472111 -207.11132812 146.39916992 C-206.78132812 145.73916992 -206.45132813 145.07916992 -206.11132812 144.39916992 C-206.77132812 143.73916992 -207.43132812 143.07916992 -208.11132812 142.39916992 Z M-86.11132812 145.39916992 C-85.11132812 147.39916992 -85.11132812 147.39916992 -85.11132812 147.39916992 Z M-325.11132812 153.39916992 C-326.21031514 156.69613097 -325.98257257 157.80411895 -325.17382812 161.08666992 C-324.97917969 161.89491211 -324.78453125 162.7031543 -324.58398438 163.53588867 C-324.42800781 164.15077148 -324.27203125 164.7656543 -324.11132812 165.39916992 C-321.87988848 164.97341486 -319.65123037 164.53306606 -317.42382812 164.08666992 C-315.56177734 163.7212207 -315.56177734 163.7212207 -313.66210938 163.34838867 C-310.30514678 162.45098283 -307.96223788 161.34520201 -305.11132812 159.39916992 C-305.29597179 155.0573279 -305.29597179 155.0573279 -307.11132812 151.39916992 C-312.9732499 150.83653011 -319.62788733 151.11032298 -325.11132812 153.39916992 Z " fill="#C78030" transform="translate(395.111328125,33.600830078125)"/>
<path d="M0 0 C2.22748931 -0.00218643 4.45448297 -0.02036155 6.68188477 -0.03930664 C8.10571121 -0.04224104 9.52953999 -0.04422553 10.95336914 -0.04516602 C12.24235107 -0.0492749 13.53133301 -0.05338379 14.859375 -0.05761719 C19.60413049 0.27727901 22.10622883 1.06610523 25.58911133 4.32861328 C27.73775828 7.91408362 27.81186392 10.83946663 27.69165039 14.89233398 C27.6859906 15.61772873 27.68033081 16.34312347 27.67449951 17.09049988 C27.65221638 19.39362281 27.60204026 21.69515497 27.55102539 23.99780273 C27.53094973 25.56483746 27.51270082 27.13189672 27.49633789 28.69897461 C27.45237876 32.52835793 27.38341162 36.3565612 27.30102539 40.18530273 C28.15482788 39.96547729 28.15482788 39.96547729 29.02587891 39.74121094 C41.57470781 36.69918954 54.13504607 38.6157077 65.42602539 44.81030273 C72.99995522 49.6095067 78.25835439 56.26840537 82.30102539 64.18530273 C83.01258789 63.22624023 83.01258789 63.22624023 83.73852539 62.24780273 C94.51425728 49.36948901 106.43731618 42.22277353 123.30102539 40.18530273 C139.59049198 38.85960861 156.89900376 41.63003904 170.05102539 51.93530273 C178.11610562 59.37267625 182.84941221 69.72419693 183.43383789 80.67358398 C183.41350451 88.0241026 183.13386404 95.34303371 182.80102539 102.68530273 C182.44657616 110.70605436 182.17087426 118.71896087 182.11352539 126.74780273 C182.09418945 128.02204102 182.09418945 128.02204102 182.07446289 129.32202148 C182.0664515 134.30510881 182.7495449 138.39958215 184.30102539 143.18530273 C184.83712535 147.55068814 184.73113267 150.10502597 182.05102539 153.56030273 C178.52803284 156.92315926 176.90748609 157.15836644 172.11230469 157.23876953 C165.06643403 157.0422198 165.06643403 157.0422198 162.13916016 156.94335938 C160.00642998 156.87339014 157.87367805 156.81885254 155.74047852 156.76538086 C154.36870406 156.72270423 152.99695767 156.67911351 151.62524414 156.63452148 C150.38863037 156.59673584 149.1520166 156.5589502 147.87792969 156.52001953 C144.14976655 156.17114835 140.88542677 155.2335685 137.30102539 154.18530273 C134.35894789 154.57181312 134.35894789 154.57181312 131.55102539 155.56030273 C119.5923536 158.86486755 107.47155725 157.43574114 96.40258789 151.67749023 C89.47265613 147.09307384 83.8976024 141.08016825 79.30102539 134.18530273 C78.97231445 134.66999023 78.64360352 135.15467773 78.30493164 135.65405273 C71.57252118 145.14146043 64.6027339 151.03506272 53.30102539 154.18530273 C52.39803711 154.4734082 52.39803711 154.4734082 51.47680664 154.76733398 C48.10152168 155.41572804 44.72589364 155.41980046 41.30102539 155.43530273 C40.54934082 155.43925049 39.79765625 155.44319824 39.02319336 155.44726562 C33.26841586 155.38781798 28.13166684 154.47067088 22.62133789 152.74389648 C20.16597372 151.93616047 20.16597372 151.93616047 17.30102539 153.18530273 C12.76231382 153.41393574 8.22123529 153.41359298 3.67749023 153.42553711 C1.44094586 153.43523802 -0.79467722 153.46627045 -3.03100586 153.49780273 C-4.45938584 153.50433389 -5.88777237 153.50958392 -7.31616211 153.51342773 C-8.61150879 153.52277344 -9.90685547 153.53211914 -11.24145508 153.54174805 C-14.92128744 153.16238389 -16.78060179 152.40952885 -19.69897461 150.18530273 C-21.01147461 147.99780273 -21.01147461 147.99780273 -21.69897461 146.18530273 C-22.37959961 147.36092773 -22.37959961 147.36092773 -23.07397461 148.56030273 C-25.71444305 152.82567484 -25.71444305 152.82567484 -28.37524414 153.79760742 C-33.62602861 154.67365761 -39.02953832 154.41145234 -44.34301758 154.42553711 C-46.55970829 154.43524029 -48.77547003 154.46628656 -50.99194336 154.49780273 C-52.41251081 154.50433408 -53.83308484 154.50958404 -55.25366211 154.51342773 C-57.17927979 154.52744629 -57.17927979 154.52744629 -59.14379883 154.54174805 C-63.00133505 154.15498779 -65.41577651 153.21361425 -68.69897461 151.18530273 C-69.02897461 150.52530273 -69.35897461 149.86530273 -69.69897461 149.18530273 C-70.81272461 150.39186523 -70.81272461 150.39186523 -71.94897461 151.62280273 C-77.37265156 156.67668353 -84.7902178 155.59537533 -91.86083984 155.8527832 C-93.99464036 155.93465681 -96.12669945 156.03836599 -98.25952148 156.14233398 C-99.6312152 156.19447676 -101.00295982 156.24530023 -102.37475586 156.29467773 C-104.22967651 156.37153809 -104.22967651 156.37153809 -106.12207031 156.44995117 C-110.36169914 156.13626899 -113.04226791 155.37120013 -116.69897461 153.18530273 C-120.69091504 147.12278118 -120.24570845 140.27495072 -120.39428711 133.20874023 C-120.43206268 131.96532867 -120.46983826 130.72191711 -120.50875854 129.44082642 C-120.60687909 126.15173592 -120.693524 122.86262514 -120.77380371 119.57305908 C-120.88942765 114.93445726 -121.0245834 110.29639879 -121.16061401 105.65835571 C-121.23181947 103.19331913 -121.29770984 100.72812197 -121.35769653 98.26278687 C-121.38797943 97.1445755 -121.41826233 96.02636414 -121.44946289 94.87426758 C-121.47372345 93.89388519 -121.49798401 92.91350281 -121.52297974 91.90341187 C-121.6948331 89.24926519 -122.11358418 86.77679771 -122.69897461 84.18530273 C-124.67897461 84.18530273 -126.65897461 84.18530273 -128.69897461 84.18530273 C-128.57664125 88.62037856 -128.45280037 93.05540965 -128.32803345 97.49041748 C-128.26146285 99.8732236 -128.1963875 102.25606768 -128.13134766 104.63891602 C-127.9172154 112.35880107 -127.67648836 120.07519174 -127.33959961 127.79077148 C-127.25730103 129.76267456 -127.25730103 129.76267456 -127.17333984 131.77441406 C-127.0673886 134.25252264 -126.9526588 136.73027527 -126.828125 139.20751953 C-126.78163818 140.32167236 -126.73515137 141.4358252 -126.68725586 142.58374023 C-126.64125244 143.54973145 -126.59524902 144.51572266 -126.54785156 145.51098633 C-126.7570342 149.21274179 -127.78433738 152.02121898 -130.07397461 154.93530273 C-133.02377672 157.20438128 -136.41831679 157.32230237 -140.04272461 157.50170898 C-140.87143066 157.54392578 -141.70013672 157.58614258 -142.55395508 157.62963867 C-143.86323975 157.68812988 -143.86323975 157.68812988 -145.19897461 157.74780273 C-146.54113037 157.80822754 -146.54113037 157.80822754 -147.91040039 157.86987305 C-150.50637309 157.98149753 -153.10258202 158.0840029 -155.69897461 158.18530273 C-156.94420898 158.24073242 -158.18944336 158.29616211 -159.47241211 158.35327148 C-169.63728648 158.62211577 -169.63728648 158.62211577 -173.69897461 155.18530273 C-176.22299511 150.1673096 -177.10994066 144.72222187 -177.69897461 139.18530273 C-178.0534668 139.73057617 -178.40795898 140.27584961 -178.77319336 140.83764648 C-188.8734092 155.14424761 -203.1412451 160.19875683 -219.63647461 163.49780273 C-239.06500226 166.23569823 -260.0274792 163.74410497 -276.51147461 152.49780273 C-286.99767797 144.36564502 -293.19426673 134.12629344 -295.69897461 121.18530273 C-296.14919603 115.96273424 -295.65962316 112.5752299 -292.69897461 108.18530273 C-289.16772558 106.43937062 -285.85281228 105.79163658 -281.96069336 105.33374023 C-280.89399414 105.20483398 -279.82729492 105.07592773 -278.72827148 104.94311523 C-277.62547852 104.81678711 -276.52268555 104.69045898 -275.38647461 104.56030273 C-273.70328125 104.35920898 -273.70328125 104.35920898 -271.98608398 104.15405273 C-269.22437933 103.82499856 -266.46208445 103.50230281 -263.69897461 103.18530273 C-264.44920898 102.84499023 -265.19944336 102.50467773 -265.97241211 102.15405273 C-277.11341406 96.87821302 -286.99273782 90.47668905 -292.69897461 79.18530273 C-297.19451964 66.45904174 -298.07514637 55.09307114 -292.51538086 42.50561523 C-284.79051582 28.45642725 -271.20247476 21.24020607 -256.26147461 16.81030273 C-237.93773093 11.83455179 -217.55293108 12.45806436 -200.31225586 20.82983398 C-193.18272061 25.13867998 -187.64375725 30.53946692 -182.69897461 37.18530273 C-182.71468506 36.48445557 -182.73039551 35.7836084 -182.74658203 35.06152344 C-182.80909873 31.87369922 -182.84801842 28.68600422 -182.88647461 25.49780273 C-182.91161133 24.39500977 -182.93674805 23.2922168 -182.96264648 22.15600586 C-182.97231445 21.08930664 -182.98198242 20.02260742 -182.99194336 18.92358398 C-183.00765381 17.94429932 -183.02336426 16.96501465 -183.03955078 15.95605469 C-182.63692028 12.6804607 -181.61795444 10.84625733 -179.69897461 8.18530273 C-173.86261676 3.65036259 -166.77576358 4.37769594 -159.69897461 4.18530273 C-158.85061035 4.15807129 -158.00224609 4.13083984 -157.12817383 4.1027832 C-154.44339978 4.0250982 -151.7595575 3.97529817 -149.07397461 3.93530273 C-147.79478149 3.90303589 -147.79478149 3.90303589 -146.48974609 3.87011719 C-141.78759674 3.84533211 -138.39194864 3.9309578 -134.69897461 7.18530273 C-129.15795887 17.34949724 -131.59149674 32.87624235 -131.69897461 44.18530273 C-131.15080078 43.97381592 -130.60262695 43.7623291 -130.0378418 43.54443359 C-124.5538292 41.55423004 -119.77121712 40.66579932 -113.94897461 40.74780273 C-112.78108398 40.76133789 -112.78108398 40.76133789 -111.58959961 40.77514648 C-99.77251987 41.12499424 -89.957618 44.46369742 -81.69897461 53.18530273 C-77.96306793 58.21829136 -75.56869543 63.21258344 -73.69897461 69.18530273 C-73.68439209 68.57533447 -73.66980957 67.96536621 -73.65478516 67.33691406 C-73.58002686 64.55659209 -73.48345979 61.7774345 -73.38647461 58.99780273 C-73.35263672 57.55824219 -73.35263672 57.55824219 -73.31811523 56.08959961 C-73.12049886 50.8976784 -72.8157358 47.52129283 -69.69897461 43.18530273 C-70.25974262 40.69525769 -70.25974262 40.69525769 -71.69897461 38.18530273 C-75.4810046 30.01611795 -76.31816868 24.38416777 -73.71069336 15.77124023 C-71.38289365 9.82142013 -67.2447738 6.29095028 -61.69897461 3.18530273 C-52.70719365 -0.41140965 -43.05378114 0.25767463 -34.18725586 3.83764648 C-29.75909405 6.23594448 -25.96911849 9.64501498 -23.69897461 14.18530273 C-23.55202148 13.28038086 -23.55202148 13.28038086 -23.40209961 12.35717773 C-21.86163311 4.12364991 -21.86163311 4.12364991 -17.69897461 1.18530273 C-12.13477016 -0.7442784 -5.82474633 -0.00064156 0 0 Z M-23.69897461 33.18530273 C-24.35897461 34.29905273 -25.01897461 35.41280273 -25.69897461 36.56030273 C-26.07022461 37.18678711 -26.44147461 37.81327148 -26.82397461 38.45874023 C-27.84965809 40.16002941 -27.84965809 40.16002941 -27.69897461 42.18530273 C-26.72143817 43.20727265 -25.71838651 44.20509899 -24.69897461 45.18530273 C-23.70897461 46.67030273 -23.70897461 46.67030273 -22.69897461 48.18530273 C-22.69897461 43.23530273 -22.69897461 38.28530273 -22.69897461 33.18530273 C-23.02897461 33.18530273 -23.35897461 33.18530273 -23.69897461 33.18530273 Z M-244.69897461 58.18530273 C-244.49802745 60.12919987 -244.49802745 60.12919987 -243.69897461 62.18530273 C-238.20487191 66.01490507 -231.1877862 67.15576269 -224.69897461 68.18530273 C-226.26776367 62.27713048 -226.26776367 62.27713048 -229.38647461 57.12280273 C-234.62290036 54.99992743 -239.75722056 55.71442571 -244.69897461 58.18530273 Z M-22.69897461 66.18530273 C-22.69897461 77.40530273 -22.69897461 88.62530273 -22.69897461 100.18530273 C-22.36897461 100.18530273 -22.03897461 100.18530273 -21.69897461 100.18530273 C-21.69897461 88.96530273 -21.69897461 77.74530273 -21.69897461 66.18530273 C-22.02897461 66.18530273 -22.35897461 66.18530273 -22.69897461 66.18530273 Z M-182.35424805 68.65185547 C-185.30981997 69.32427578 -188.19023602 69.51425238 -191.21459961 69.72045898 C-193.09018555 69.85097656 -193.09018555 69.85097656 -195.00366211 69.98413086 C-196.30561523 70.07114258 -197.60756836 70.1581543 -198.94897461 70.24780273 C-200.27972636 70.33927168 -201.61045585 70.43106502 -202.94116211 70.52319336 C-206.19356137 70.74709041 -209.44615139 70.96766643 -212.69897461 71.18530273 C-209.94901 73.01861247 -207.17790108 74.42808065 -204.20214844 75.84960938 C-194.03797811 80.73638669 -185.97326398 85.57779714 -179.69897461 95.18530273 C-179.36897461 95.18530273 -179.03897461 95.18530273 -178.69897461 95.18530273 C-179.02897461 86.27530273 -179.35897461 77.36530273 -179.69897461 68.18530273 C-180.82518623 68.14008803 -180.82518623 68.14008803 -182.35424805 68.65185547 Z M27.30102539 81.18530273 C27.27637036 85.58186446 27.25818697 89.97838993 27.24609375 94.375 C27.24105418 95.87175192 27.23422252 97.36849889 27.22558594 98.86523438 C27.2135038 101.0123008 27.20779348 103.15930235 27.20336914 105.30639648 C27.19813232 106.59989014 27.19289551 107.89338379 27.1875 109.22607422 C26.96105607 112.07182678 26.96105607 112.07182678 28.30102539 113.18530273 C31.75914708 113.51868869 31.75914708 113.51868869 35.30102539 113.18530273 C39.97852964 106.16904636 39.19818942 94.84576029 37.92211914 86.79467773 C37.15728407 83.9280518 36.41900121 82.30327856 34.30102539 80.18530273 C30.40643465 79.97448422 30.40643465 79.97448422 27.30102539 81.18530273 Z M87.30102539 88.18530273 C87.63102539 89.50530273 87.96102539 90.82530273 88.30102539 92.18530273 C89.29102539 91.19530273 90.28102539 90.20530273 91.30102539 89.18530273 C89.98102539 88.85530273 88.66102539 88.52530273 87.30102539 88.18530273 Z M-245.69897461 108.18530273 C-245.4656252 115.37186616 -245.4656252 115.37186616 -241.69897461 121.18530273 C-238.64791111 122.2023239 -236.456984 122.35112357 -233.26147461 122.37280273 C-231.8402832 122.39407227 -231.8402832 122.39407227 -230.39038086 122.41577148 C-227.65395817 122.18144792 -226.03469338 121.58231656 -223.69897461 120.18530273 C-223.72257116 117.75538714 -223.72257116 117.75538714 -224.69897461 115.18530273 C-227.39877015 113.54371969 -227.39877015 113.54371969 -230.76147461 112.49780273 C-231.93194336 112.08788086 -233.10241211 111.67795898 -234.30834961 111.25561523 C-238.08934468 110.06207532 -241.82407748 109.02106486 -245.69897461 108.18530273 Z M126.30102539 116.18530273 C126.30102539 116.84530273 126.30102539 117.50530273 126.30102539 118.18530273 C128.28102539 117.85530273 130.26102539 117.52530273 132.30102539 117.18530273 C132.30102539 116.19530273 132.30102539 115.20530273 132.30102539 114.18530273 C129.11612533 113.90795264 129.11612533 113.90795264 126.30102539 116.18530273 Z " fill="#C78030" transform="translate(848.698974609375,-0.185302734375)"/>
<path d="M0 0 C0.80228027 0.00829834 1.60456055 0.01659668 2.43115234 0.02514648 C13.62704702 0.33994 23.47901039 3.24640318 31.4375 11.4375 C38.35350737 20.22269855 39.52966733 29.45894299 38.4375 40.4375 C36.32114902 47.66521652 32.38092993 52.00906201 26.4375 56.4375 C26.994375 56.52386719 27.55125 56.61023438 28.125 56.69921875 C36.62698921 58.26461879 42.42744267 61.83293622 48.11328125 68.30078125 C51.86930405 74.36138441 52.97245552 80.26019581 52.875 87.3125 C52.86525146 88.10261475 52.85550293 88.89272949 52.84545898 89.70678711 C52.5807684 98.43619298 50.53173019 104.45840814 44.6875 111.0625 C28.07067949 126.40527391 2.59543189 129.22394707 -18.56152344 133.78271484 C-21.12193166 134.34137209 -23.67525374 134.92101235 -26.2265625 135.51953125 C-27.45117188 135.80183594 -28.67578125 136.08414063 -29.9375 136.375 C-31.43410156 136.72884766 -31.43410156 136.72884766 -32.9609375 137.08984375 C-35.77802824 137.46630182 -37.80970683 137.05194736 -40.5625 136.4375 C-44.01190138 122.36141918 -47.41746053 108.28654897 -50.5 94.125 C-52.66954401 84.17991014 -55.0611695 74.30300706 -57.5625 64.4375 C-60.17901857 54.11146298 -62.68713706 43.77431706 -65 33.375 C-65.24685547 32.26962891 -65.49371094 31.16425781 -65.74804688 30.02539062 C-66.88584099 24.84210631 -67.91245194 19.70513082 -68.5625 14.4375 C-59.02193003 11.30491256 -49.437721 8.95231559 -39.625 6.875 C-38.26095516 6.58190349 -36.89702239 6.28828494 -35.53320312 5.99414062 C-32.84698879 5.41530346 -30.15945774 4.84321419 -27.47094727 4.27514648 C-24.90246789 3.72467783 -22.33761101 3.15697238 -19.77709961 2.57055664 C-13.12500508 1.06305953 -6.8303494 -0.09472094 0 0 Z M-20.5625 37.4375 C-19.9025 40.7375 -19.2425 44.0375 -18.5625 47.4375 C-10.18230369 46.03629492 -10.18230369 46.03629492 -2.5625 42.4375 C-1.22945302 39.54563214 -1.22945302 39.54563214 -2.5 37.25 C-2.850625 36.651875 -3.20125 36.05375 -3.5625 35.4375 C-9.66031001 35.21665376 -14.77892935 35.42582325 -20.5625 37.4375 Z M-8.5625 84.4375 C-9.66148702 87.73446105 -9.43374444 88.84244903 -8.625 92.125 C-8.43035156 92.93324219 -8.23570313 93.74148437 -8.03515625 94.57421875 C-7.87917969 95.18910156 -7.72320312 95.80398437 -7.5625 96.4375 C-5.33106035 96.01174494 -3.10240225 95.57139613 -0.875 95.125 C0.98705078 94.75955078 0.98705078 94.75955078 2.88671875 94.38671875 C6.24368134 93.48931291 8.58659024 92.38353209 11.4375 90.4375 C11.25285634 86.09565798 11.25285634 86.09565798 9.4375 82.4375 C3.57557823 81.87486019 -3.07905921 82.14865306 -8.5625 84.4375 Z " fill="#FEFCFB" transform="translate(78.5625,102.5625)"/>
<path d="M0 0 C6.32559999 0.6618334 12.59457951 1.49949137 18.875 2.5 C19.71546875 2.63019531 20.5559375 2.76039062 21.421875 2.89453125 C22.22882813 3.02214844 23.03578125 3.14976563 23.8671875 3.28125 C24.59019043 3.39533203 25.31319336 3.50941406 26.05810547 3.62695312 C28 4 28 4 31 5 C29.18242797 18.11542035 27.2028635 31.19048265 24.99656677 44.24609375 C24.51415873 47.1011521 24.03510485 49.95675778 23.5567627 52.8125 C22.36958689 59.89610725 21.17701365 66.97880344 19.98455811 74.06152344 C18.97089545 80.08359622 17.95939024 86.10602429 16.95054626 92.12890625 C16.48573411 94.89878923 16.01792472 97.66815383 15.54992676 100.4375 C13.50566698 112.59936812 11.69287203 124.78440255 10 137 C9.34836632 136.93986662 8.69673264 136.87973324 8.02535248 136.81777763 C7.17019295 136.73892389 6.31503342 136.66007015 5.43395996 136.5788269 C4.58638878 136.50064665 3.7388176 136.42246639 2.86556244 136.34191704 C1.09618229 136.17966865 -0.67351275 136.02084782 -2.44335938 135.86376953 C-7.80698578 135.34770051 -12.8074479 134.4437236 -18 133 C-18.33 130.36 -18.66 127.72 -19 125 C-19.61488281 125.34933594 -20.22976563 125.69867188 -20.86328125 126.05859375 C-21.67152344 126.51363281 -22.47976563 126.96867187 -23.3125 127.4375 C-24.11300781 127.88996094 -24.91351562 128.34242188 -25.73828125 128.80859375 C-32.53308584 132.38789496 -42.36443258 132.14256943 -49.7734375 130.31640625 C-52.00656997 129.37222217 -53.96200527 128.31101465 -56 127 C-56.69480469 126.57589844 -57.38960937 126.15179688 -58.10546875 125.71484375 C-66.68832649 119.93389454 -70.77258527 111.93557089 -73.3046875 102.0625 C-76.7750897 84.24007645 -73.67416938 64.40873726 -64 49 C-59.04096085 41.82340525 -52.30705403 36.76901801 -44 34 C-31.94779967 33.25963321 -21.6831628 33.14060156 -11.9375 41.125 C-10.14573939 42.75234023 -9.08633502 43.82732995 -8 46 C-5.8930151 35.70416599 -4.31664455 25.42167425 -3.09057617 14.98413086 C-2.45947757 9.79624094 -1.6080831 4.97608547 0 0 Z M-27 67 C-33.13218134 74.15421157 -34.13782517 80.918176 -34.1875 90.1875 C-34.20167969 91.39792969 -34.21585938 92.60835937 -34.23046875 93.85546875 C-34.24756663 97.16208002 -34.24756663 97.16208002 -32 100 C-28.91634129 100.2502157 -28.91634129 100.2502157 -26 100 C-24.42751266 97.14738308 -23.62815828 94.69661076 -23.1484375 91.48046875 C-23.01953125 90.62259766 -22.890625 89.76472656 -22.7578125 88.88085938 C-22.63148437 87.99205078 -22.50515625 87.10324219 -22.375 86.1875 C-22.2409375 85.31029297 -22.106875 84.43308594 -21.96875 83.52929688 C-21.250541 78.63008545 -20.85142539 73.95023596 -21 69 C-22.98 68.34 -24.96 67.68 -27 67 Z " fill="#FEFCFB" transform="translate(1437,54)"/>
<path d="M0 0 C10.23 0 20.46 0 31 0 C31.33 14.85 31.66 29.7 32 45 C34.31 43.35 36.62 41.7 39 40 C47.50648547 36.29376223 59.35294932 36.77567602 68 40 C77.33549035 44.17759423 83.1049524 50.67285249 87.34765625 59.9453125 C92.98866196 74.78580782 93.66990454 95.08304085 88 110 C87.70996094 110.80050781 87.41992188 111.60101563 87.12109375 112.42578125 C83.34748313 121.82033488 77.85324116 128.10018895 69 133 C68.39671875 133.34160156 67.7934375 133.68320313 67.171875 134.03515625 C59.73665108 137.51031525 49.2959069 137.403002 41.5625 134.9375 C37.05613027 132.89725348 33.51429187 129.41148014 30 126 C29.34 128.64 28.68 131.28 28 134 C18.76 134 9.52 134 0 134 C0 89.78 0 45.56 0 0 Z M40 71 C39.97534496 75.39656173 39.95716158 79.7930872 39.94506836 84.18969727 C39.94002879 85.68644918 39.93319713 87.18319616 39.92456055 88.67993164 C39.91247841 90.82699807 39.90676809 92.97399962 39.90234375 95.12109375 C39.89710693 96.4145874 39.89187012 97.70808105 39.88647461 99.04077148 C39.66003068 101.88652404 39.66003068 101.88652404 41 103 C44.45812169 103.33338596 44.45812169 103.33338596 48 103 C52.67750425 95.98374362 51.89716402 84.66045756 50.62109375 76.609375 C49.85625868 73.74274906 49.11797582 72.11797582 47 70 C43.10540926 69.78918149 43.10540926 69.78918149 40 71 Z " fill="#FEFCFB" transform="translate(836,10)"/>
<path d="M0 0 C1.00675781 0.05800781 2.01351562 0.11601562 3.05078125 0.17578125 C13.72906574 1.37510143 25.22478734 6.46889274 32.6875 14.3125 C38.13017443 21.29988026 41.35239123 28.08009695 41 37 C30.28712612 38.26699248 19.8029818 39.34910893 9 39 C8.5875 37.7625 8.175 36.525 7.75 35.25 C5.89435087 30.29576694 3.38230131 27.92153421 -1 25 C-8.74885739 24.24185258 -16.06882609 24.2777029 -23 28 C-26.1609515 30.84485635 -26.90861465 32.2689172 -27.4375 36.5 C-26.94384134 40.44926928 -26.65452597 42.03317686 -24 45 C-17.05731922 49.25652453 -9.70491814 51.38991634 -1.875 53.375 C15.15370747 57.95758015 31.6304221 62.84940273 41.0625 79.078125 C41.371875 79.71234375 41.68125 80.3465625 42 81 C42.36351562 81.7321875 42.72703125 82.464375 43.1015625 83.21875 C45.43257733 90.43476114 45.32871014 100.97717386 42.4375 108.0625 C36.19401781 119.33122396 26.65894234 124.92743179 14.8359375 129.23828125 C-2.59194923 133.91932521 -23.69853624 133.13068161 -39.65234375 124.578125 C-49.64333278 118.39401865 -55.83865085 110.36676183 -59.3125 99.125 C-60 96 -60 96 -60 92 C-37.19872014 89.61223194 -37.19872014 89.61223194 -28 90 C-27.35366725 91.77065111 -26.7079517 93.54152753 -26.0625 95.3125 C-25.52302734 96.79169922 -25.52302734 96.79169922 -24.97265625 98.30078125 C-24.29114035 100.1920563 -23.6357189 102.09284329 -23 104 C-20.57616923 105.16953416 -20.57616923 105.16953416 -18 106 C-17.01 106.495 -17.01 106.495 -16 107 C-4.03328147 108.16297564 -4.03328147 108.16297564 7.0625 104.625 C10.3741137 101.75778985 10.3741137 101.75778985 11.23828125 97.79296875 C11.35137409 93.82281483 11.38444037 90.82380078 9.6875 87.1875 C2.34757716 81.2131442 -6.31366756 79.30803762 -15.3125 77.0625 C-32.171536 72.84200663 -47.34509811 67.21153248 -57.25390625 52.0859375 C-60.97571463 45.16103968 -60.95515934 37.66576595 -60 30 C-58.78607951 26.30066127 -57.15850721 23.22832128 -55 20 C-54.1646875 18.6696875 -54.1646875 18.6696875 -53.3125 17.3125 C-39.20103767 3.20103767 -19.34703605 -1.11820383 0 0 Z " fill="#FEFCFB" transform="translate(622,23)"/>
<path d="M0 0 C7.61006154 5.85710403 13.12908697 12.36543023 16.13671875 21.64453125 C16.57727291 26.03601266 16.51931865 30.25171759 16.13671875 34.64453125 C-5.39519614 33.64453125 -5.39519614 33.64453125 -15.86328125 32.64453125 C-15.96125 31.98066406 -16.05921875 31.31679687 -16.16015625 30.6328125 C-17.34010966 23.30439237 -17.34010966 23.30439237 -21.86328125 17.64453125 C-28.06321531 14.46706504 -35.00456297 13.53666192 -41.86328125 14.64453125 C-45.54009105 16.23291308 -49.02849563 17.97496002 -50.86328125 21.64453125 C-51.52225647 26.7546817 -51.52225647 26.7546817 -49.82006836 31.44091797 C-45.78402749 36.22902042 -41.69998831 38.63738815 -35.98828125 41.08203125 C-34.29240603 41.84901742 -32.59710244 42.61726862 -30.90234375 43.38671875 C-30.05704102 43.7640918 -29.21173828 44.14146484 -28.34082031 44.53027344 C-12.845233 51.49931763 3.68846737 58.96770664 10.54345703 75.68823242 C11.62866131 79.26672701 11.6239474 82.80515355 11.57421875 86.51953125 C11.56592041 87.31601074 11.55762207 88.11249023 11.54907227 88.93310547 C11.28359341 98.15589769 8.33436041 104.12445927 2.0546875 110.859375 C-10.5415585 122.58337586 -26.7269762 122.32661186 -42.94677734 121.82373047 C-58.29322951 120.88079594 -72.45231159 113.81637392 -82.86328125 102.64453125 C-89.8612181 94.21149952 -92.38826074 85.49410744 -91.86328125 74.64453125 C-84.77889769 74.52633507 -77.85232028 74.98609101 -70.80078125 75.64453125 C-69.74439453 75.73992187 -68.68800781 75.8353125 -67.59960938 75.93359375 C-65.02048539 76.16699864 -62.44175326 76.40404868 -59.86328125 76.64453125 C-59.73195801 77.33377686 -59.60063477 78.02302246 -59.46533203 78.7331543 C-59.2898584 79.63590088 -59.11438477 80.53864746 -58.93359375 81.46875 C-58.76102051 82.36424561 -58.58844727 83.25974121 -58.41064453 84.18237305 C-57.28468881 89.24716493 -55.21318995 91.59116138 -50.98828125 94.39453125 C-44.87078096 98.18498241 -37.88221766 98.35034608 -30.86328125 97.64453125 C-26.69763577 96.40827517 -23.71214723 94.98856906 -21.36328125 91.26953125 C-20.50572015 86.76733546 -20.29117636 83.89276009 -22.23828125 79.64453125 C-28.77554323 72.1733747 -38.57517261 68.91127807 -47.46240234 64.96166992 C-61.82913383 58.56644354 -75.62545102 51.05566243 -82.99609375 36.390625 C-85.55565345 28.28535261 -84.9390063 17.44697213 -81.23046875 9.8125 C-75.09685054 0.08633399 -64.66056371 -5.7666026 -53.640625 -8.5234375 C-35.8560725 -12.11460336 -15.32016346 -10.27413339 0 0 Z " fill="#FEFCFB" transform="translate(1172.86328125,34.35546875)"/>
<path d="M0 0 C0.74206833 16.34326555 1.15283326 32.63978735 1 49 C2.051875 48.07767578 2.051875 48.07767578 3.125 47.13671875 C13.93605103 37.92676088 20.66613123 35.95118033 35 37 C43.54754989 38.09342798 49.5588689 42.40118143 55 49 C59.54169715 57.12505454 61.04451159 64.96100885 61.31640625 74.1875 C61.34764587 75.21939705 61.34764587 75.21939705 61.3795166 76.2721405 C61.44538934 78.51465254 61.50439243 80.75727424 61.5625 83 C61.58367889 83.76535065 61.60485779 84.53070129 61.62667847 85.31924438 C62.05441794 100.88122837 62.1123659 116.4330015 62 132 C59.62531288 132.17270452 57.25043353 132.33813805 54.875 132.5 C53.90626953 132.57154297 53.90626953 132.57154297 52.91796875 132.64453125 C48.17261531 132.96088815 43.45194239 133.02338324 38.69580078 133.01367188 C37.44034454 133.011698 36.18488831 133.00972412 34.89138794 133.00769043 C33.93722992 133.00515259 32.9830719 133.00261475 32 133 C31.96907761 132.23880356 31.93815521 131.47760712 31.90629578 130.69334412 C31.61162579 123.4986949 31.30398555 116.30477021 30.98198223 109.11129665 C30.8169124 105.41356594 30.6567598 101.71576191 30.50805664 98.01733398 C30.36420279 94.44411174 30.2071559 90.87168562 30.04117775 87.29942513 C29.98032117 85.9405726 29.92411699 84.581503 29.87277794 83.22225761 C29.57021856 73.19314918 29.57021856 73.19314918 26 64 C23.0707027 61.76140017 20.30973276 61.70287015 16.6875 61.6875 C15.33205078 61.66236328 15.33205078 61.66236328 13.94921875 61.63671875 C10.18200961 62.10075908 7.42901393 63.38559469 4 65 C3.77758847 86.51762022 3.77758847 86.51762022 4.77734375 108 C5.38379279 116.9611764 5.05337512 126.03298008 5 135 C-4.9 135 -14.8 135 -25 135 C-26.12503347 125.99973222 -26.12503347 125.99973222 -26.34803772 121.65675354 C-26.39989731 120.67430664 -26.4517569 119.69185974 -26.50518799 118.67964172 C-26.58395172 117.10293953 -26.58395172 117.10293953 -26.66430664 115.49438477 C-26.75230782 113.80256577 -26.75230782 113.80256577 -26.84208679 112.0765686 C-27.03435889 108.36499152 -27.22237495 104.65321304 -27.41015625 100.94140625 C-27.54305793 98.35122211 -27.6761531 95.76104789 -27.80943298 93.17088318 C-28.08780091 87.74837448 -28.36417499 82.32576971 -28.63891602 76.90307617 C-28.95558565 70.65337825 -29.27598167 64.40387988 -29.5983935 58.15447575 C-29.90968537 52.1189863 -30.21834507 46.08336574 -30.52584648 40.04768181 C-30.65637692 37.49007838 -30.78755123 34.93250773 -30.91938972 32.37497139 C-31.10354397 28.79509461 -31.28471043 25.21507858 -31.46508789 21.63500977 C-31.51962128 20.5858992 -31.57415466 19.53678864 -31.63034058 18.45588684 C-31.92039937 12.62826339 -32.05170461 6.83488021 -32 1 C-29.10437541 0.82876982 -26.20859229 0.66297401 -23.3125 0.5 C-22.51521484 0.45230469 -21.71792969 0.40460937 -20.89648438 0.35546875 C-13.92832329 -0.03012119 -6.97753451 -0.0494325 0 0 Z " fill="#FEFCFB" transform="translate(707,13)"/>
<path d="M0 0 C7.70648714 6.05614955 12.66517124 14.99029208 14.79296875 24.48046875 C16.80921578 43.09911808 12.97900576 59.80943237 1.17578125 74.4921875 C-5.83863049 82.22817748 -16.16550364 87.27577622 -26.58984375 87.81640625 C-42.84446536 88.12486573 -57.07814563 84.7256799 -69.35546875 73.5 C-78.95985995 63.02432437 -81.7313894 50.62583726 -81.48828125 36.7890625 C-80.8013924 21.53669557 -74.3586602 7.77838448 -63.20703125 -2.51953125 C-44.03204681 -17.23377617 -18.88828968 -13.00450387 0 0 Z M-35.26171875 23.1015625 C-40.79672379 29.87027349 -41.64652068 39.46843229 -41.73828125 47.921875 C-41.05656057 51.20516212 -39.7876936 52.40358211 -37.20703125 54.48046875 C-34.75214191 55.48073189 -34.75214191 55.48073189 -32.20703125 54.48046875 C-25.44206942 46.9379251 -24.98660647 37.97488434 -24.94140625 28.3359375 C-24.99756306 25.27981865 -24.99756306 25.27981865 -27.20703125 22.48046875 C-31.49263361 21.0589588 -31.49263361 21.0589588 -35.26171875 23.1015625 Z " fill="#FEFCFB" transform="translate(1597.20703125,126.51953125)"/>
<path d="M0 0 C8.44480253 7.42560222 10.97879131 18.11194351 12.7578125 28.78125 C12.90182495 29.60570114 13.0458374 30.43015228 13.19421387 31.27958679 C13.64903229 33.88713328 14.09484208 36.49609766 14.5390625 39.10546875 C17.35401203 59.26581964 17.35401203 59.26581964 25.0390625 77.79296875 C25.0390625 78.78296875 25.0390625 79.77296875 25.0390625 80.79296875 C15.1390625 82.44296875 5.2390625 84.09296875 -4.9609375 85.79296875 C-7.9609375 81.79296875 -7.9609375 81.79296875 -7.9609375 79.79296875 C-8.6003125 80.49421875 -9.2396875 81.19546875 -9.8984375 81.91796875 C-18.64450543 90.6391899 -27.59991368 93.27747913 -39.62768555 93.29711914 C-48.06806413 93.08864463 -54.46242786 90.65269002 -60.9140625 85.1171875 C-67.72242163 77.92875007 -68.59539337 69.99701287 -68.3671875 60.421875 C-67.49002258 52.58643064 -63.40479658 47.28410144 -57.3671875 42.41796875 C-46.95331456 35.38522339 -32.67245029 30.28215062 -19.9609375 30.79296875 C-20.43864273 28.8551079 -20.91815321 26.91769201 -21.3984375 24.98046875 C-21.66527344 23.90152344 -21.93210938 22.82257813 -22.20703125 21.7109375 C-22.72171162 19.71888445 -23.31030925 17.74485351 -23.9609375 15.79296875 C-27.62883159 14.17909535 -32.03411204 14.27290933 -35.9609375 14.79296875 C-39.49788028 16.09508931 -39.49788028 16.09508931 -41.9609375 18.79296875 C-42.75891889 21.56212273 -42.86365487 23.8744898 -42.9609375 26.79296875 C-44.0953125 27.04046875 -45.2296875 27.28796875 -46.3984375 27.54296875 C-49.66511431 28.26195025 -52.91896492 29.02206062 -56.16796875 29.81640625 C-56.9144165 29.99719727 -57.66086426 30.17798828 -58.42993164 30.36425781 C-59.93155015 30.72877358 -61.43208226 31.09779902 -62.93139648 31.47167969 C-66.67776706 32.37652162 -70.10166091 33.02087878 -73.9609375 32.79296875 C-74.91912212 23.77893567 -73.02562963 17.30594567 -67.9609375 9.79296875 C-62.03912295 2.7177084 -54.44031279 -0.92370258 -45.9609375 -4.20703125 C-45.08824219 -4.54863281 -44.21554688 -4.89023438 -43.31640625 -5.2421875 C-29.19023491 -9.90751291 -12.19927362 -8.72916222 0 0 Z M-24.9609375 56.79296875 C-27.0009094 58.15620618 -27.0009094 58.15620618 -28.9609375 59.79296875 C-28.9609375 60.45296875 -28.9609375 61.11296875 -28.9609375 61.79296875 C-26.48826985 61.44851994 -26.48826985 61.44851994 -23.9609375 60.79296875 C-23.6309375 60.13296875 -23.3009375 59.47296875 -22.9609375 58.79296875 C-23.6209375 58.13296875 -24.2809375 57.47296875 -24.9609375 56.79296875 Z " fill="#FEFCFB" transform="translate(211.9609375,119.20703125)"/>
<path d="M0 0 C5.6182446 4.71742901 10.62981564 9.93573115 12.5625 17.1875 C12.95615013 22.06150798 12.86331116 26.92377596 12.78515625 31.80859375 C12.77446118 33.23672892 12.76541036 34.66487726 12.75791931 36.09303284 C12.73522446 39.84000574 12.69622802 43.58660058 12.6519165 47.33337402 C12.5815386 53.32523068 12.52621625 59.31706465 12.48956108 65.30922127 C12.47300454 67.38982577 12.44344012 69.46996098 12.41285706 71.55039978 C12.39810585 73.46762596 12.39810585 73.46762596 12.38305664 75.42358398 C12.3695668 76.53942368 12.35607697 77.65526337 12.34217834 78.80491638 C12.51480645 83.01087214 12.51480645 83.01087214 14.5625 90.1875 C4.6625 90.1875 -5.2375 90.1875 -15.4375 90.1875 C-16.4275 87.8775 -17.4175 85.5675 -18.4375 83.1875 C-19.21673828 83.69410156 -19.21673828 83.69410156 -20.01171875 84.2109375 C-20.70910156 84.65695313 -21.40648437 85.10296875 -22.125 85.5625 C-22.80949219 86.00335938 -23.49398437 86.44421875 -24.19921875 86.8984375 C-32.6638388 91.77334957 -43.98338871 91.68410552 -53.40234375 89.5 C-55.60744738 88.56990357 -57.46300893 87.53583111 -59.4375 86.1875 C-60.14003906 85.74019531 -60.84257813 85.29289062 -61.56640625 84.83203125 C-67.96828448 80.43442429 -72.7989329 74.93345358 -74.4375 67.1875 C-75.37256029 58.09583687 -73.42372174 51.24110603 -68.8125 43.4375 C-58.11826056 33.30611527 -45.97827498 31.71551739 -31.8125 32 C-30.52214844 32.01353516 -29.23179687 32.02707031 -27.90234375 32.04101562 C-24.74694972 32.07607556 -21.59245422 32.12521856 -18.4375 32.1875 C-18.52483973 30.10339342 -18.63302278 28.02015331 -18.75 25.9375 C-18.80800781 24.77734375 -18.86601563 23.6171875 -18.92578125 22.421875 C-19.4612541 19.03735961 -20.03634142 17.58295512 -22.4375 15.1875 C-26.49822299 13.83392567 -30.19616962 13.51781626 -34.4375 14.1875 C-38.28097506 17.0701063 -39.26433646 18.49484583 -40.4375 23.1875 C-50.6675 23.1875 -60.8975 23.1875 -71.4375 23.1875 C-70.07753605 13.66775237 -67.62293203 7.60492389 -60.4375 1.1875 C-43.74925285 -9.92981758 -16.95388014 -11.75427006 0 0 Z M-34.4375 59.1875 C-34.4375 59.8475 -34.4375 60.5075 -34.4375 61.1875 C-32.4575 60.8575 -30.4775 60.5275 -28.4375 60.1875 C-28.4375 59.1975 -28.4375 58.2075 -28.4375 57.1875 C-31.62240007 56.9101499 -31.62240007 56.9101499 -34.4375 59.1875 Z " fill="#FEFCFB" transform="translate(1009.4375,56.8125)"/>
<path d="M0 0 C10.07049599 9.20630282 14.86776873 20.61077676 15.53125 34.1015625 C15.5621875 34.89304688 15.593125 35.68453125 15.625 36.5 C15.66367187 37.32242188 15.70234375 38.14484375 15.7421875 38.9921875 C15.83531692 40.9944701 15.91868985 42.99720262 16 45 C10.16977563 45.69948818 4.33887595 46.39296422 -1.49267578 47.08129883 C-3.46910058 47.31539558 -5.44534437 47.55102665 -7.42138672 47.78833008 C-19.2745188 49.21058565 -31.07203111 50.43348598 -43 51 C-40.98273576 55.84990016 -38.99228384 60.24897461 -34.4453125 63.15234375 C-27.34826272 65.61250318 -17.84409341 65.19231951 -10.9375 62.375 C-6.82155045 60.17455005 -3.34797907 57.2295618 0 54 C3.87321093 55.57630677 6.24735163 58.07747669 9.125 61.0625 C12.24105765 64.46453483 12.24105765 64.46453483 16 67 C13.65255821 74.20728074 7.67364199 78.88439908 1.24609375 82.5859375 C-1.48431644 83.86763788 -4.15470283 84.9953461 -7 86 C-7.72131104 86.25821533 -8.44262207 86.51643066 -9.18579102 86.7824707 C-15.51657915 88.88815268 -21.28596582 89.5107343 -27.9375 89.4375 C-28.90461914 89.42992676 -29.87173828 89.42235352 -30.86816406 89.41455078 C-37.90717168 89.25181976 -43.74124692 88.39457794 -50 85 C-50.84304688 84.5875 -51.68609375 84.175 -52.5546875 83.75 C-63.31620311 77.9930798 -69.86462526 69.08596644 -74.1875 57.9375 C-76.0378076 51.24792638 -76.21042732 44.57809266 -76.25 37.6875 C-76.270625 36.80126953 -76.29125 35.91503906 -76.3125 35.00195312 C-76.37936624 23.54275149 -72.749741 13.28946764 -64.9609375 4.76953125 C-47.46439299 -11.70689671 -19.47312053 -14.59687268 0 0 Z " fill="#FEFCFB" transform="translate(491,79)"/>
<path d="M0 0 C6.78970406 -0.19585685 13.28047912 0.5664996 20 1.5 C21.06089844 1.64308594 22.12179687 1.78617187 23.21484375 1.93359375 C25.81057243 2.2843679 28.40554555 2.63994284 31 3 C30.69990459 14.0735207 29.54672977 24.90602769 28 35.875 C26.75806882 44.7812616 25.61139206 53.64194669 25.125 62.625 C25.07601563 63.42921387 25.02703125 64.23342773 24.9765625 65.06201172 C24.74183145 70.3671976 24.74183145 70.3671976 27 75 C30.64396001 77.42930667 32.53912081 77.29874985 36.875 77.3125 C38.08929687 77.32925781 39.30359375 77.34601563 40.5546875 77.36328125 C44.44058637 76.95354361 46.01937621 76.51216178 49 74 C49.84190842 71.01281832 50.34023621 68.44823199 50.6953125 65.3984375 C50.87256866 64.1061322 50.87256866 64.1061322 51.05340576 62.78771973 C51.43220957 59.98586583 51.77894647 57.18106997 52.125 54.375 C52.37722435 52.46085629 52.63129696 50.54695522 52.88720703 48.63330078 C53.62107438 43.09243436 54.31405599 37.54696877 55 32 C55.18520298 30.52339433 55.37072279 29.04682834 55.55664062 27.5703125 C56.41484966 20.71831686 57.24057109 13.86367319 58 7 C81.52192067 8.50730689 81.52192067 8.50730689 89 11 C88.66818607 21.83372472 87.30107826 32.38086423 85.65551758 43.08569336 C84.31115243 51.83638669 83.08971161 60.59698883 81.9375 69.375 C80.373006 81.26239486 78.72861611 93.13540761 77 105 C67.63859312 104.23167719 58.32354753 103.1258211 49 102 C48.505 97.545 48.505 97.545 48 93 C47.31292969 93.42152344 46.62585937 93.84304687 45.91796875 94.27734375 C45.01691406 94.82519531 44.11585937 95.37304688 43.1875 95.9375 C42.29417969 96.48277344 41.40085937 97.02804688 40.48046875 97.58984375 C33.14385226 101.76073911 22.0150421 101.03932208 13.87109375 99.3515625 C4.74878092 96.01099724 -1.00043819 90.10754473 -5.08984375 81.4296875 C-6.82599417 76.79498552 -7.15899972 72.49304896 -7.1875 67.5625 C-7.20167969 66.47066406 -7.21585938 65.37882812 -7.23046875 64.25390625 C-7.08974157 59.48415294 -6.27270086 54.81362759 -5.56811523 50.10083008 C-4.42170229 42.12247691 -3.73093983 34.08188284 -2.9375 26.0625 C-2.67704813 23.44661522 -2.41571935 20.83082515 -2.15272522 18.2151947 C-1.99084367 16.60366977 -1.83045264 14.99199411 -1.67185974 13.38014221 C-1.22353673 8.89952091 -0.66855689 4.45324384 0 0 Z " fill="#FEFCFB" transform="translate(1268,71)"/>
<path d="M0 0 C4.60295403 3.04222779 8.09852661 6.65783274 11.3125 11.125 C11.96412109 12.01445312 11.96412109 12.01445312 12.62890625 12.921875 C16.45239569 19.15669401 15.67019712 26.05054589 15.3125 33.125 C8.22415539 31.76282016 1.20322049 30.19480888 -5.8125 28.5 C-6.76898437 28.27054688 -7.72546875 28.04109375 -8.7109375 27.8046875 C-11.03686615 27.24646462 -13.36237222 26.68654756 -15.6875 26.125 C-15.86055664 25.07916748 -15.86055664 25.07916748 -16.03710938 24.01220703 C-16.20017578 23.10325684 -16.36324219 22.19430664 -16.53125 21.2578125 C-16.68787109 20.35434082 -16.84449219 19.45086914 -17.00585938 18.52001953 C-17.5209716 15.86782519 -17.5209716 15.86782519 -20.1875 14 C-25.73025155 12.61431211 -31.22820752 12.30523584 -36.6875 14.125 C-37.89657478 18.98863194 -37.89657478 18.98863194 -36.3359375 23.55859375 C-32.57442696 27.20359732 -28.31914956 28.91024474 -23.5625 31 C-12.27170414 36.18174767 -0.38625587 41.77479117 5.4765625 53.44140625 C7.49340443 59.9160343 7.5901044 68.29445467 4.8125 74.5625 C0.38588199 81.81594074 -6.69153744 86.56958928 -14.6875 89.125 C-30.63318183 92.38860796 -47.23952346 89.86866058 -60.99609375 81.109375 C-69.06961195 75.15676652 -75.73003618 68.28516933 -77.6875 58.125 C-77.75438591 56.20938746 -77.77281719 54.29164408 -77.75 52.375 C-77.74097656 51.39015625 -77.73195313 50.4053125 -77.72265625 49.390625 C-77.71105469 48.64296875 -77.69945312 47.8953125 -77.6875 47.125 C-68.58243982 48.4105982 -59.65668357 50.10794223 -50.6875 52.125 C-50.419375 53.176875 -50.15125 54.22875 -49.875 55.3125 C-48.23721377 60.57065581 -46.91212004 63.68553308 -42.0625 66.4375 C-37.66880022 68.43979492 -33.4519709 68.89519642 -28.6875 68.125 C-26.48667714 67.36092576 -26.48667714 67.36092576 -24.6875 66.125 C-23.42739657 63.31642252 -23.42739657 63.31642252 -23.6875 60.125 C-28.3336604 54.23207119 -35.07574682 51.64506861 -41.67578125 48.40625 C-51.90583552 43.25442411 -60.76417606 36.92542816 -66.5625 26.875 C-68.66339915 19.87200284 -68.72112554 13.60841886 -65.6875 6.875 C-61.67562132 -0.2047859 -55.67624892 -5.49166897 -47.95703125 -8.20703125 C-31.12331931 -11.6461767 -14.90005477 -8.16810231 0 0 Z " fill="#FEFCFB" transform="translate(1692.6875,144.875)"/>
<path d="M0 0 C2.31177931 7.55181241 2.6123387 15.16516106 3 23 C3.72445312 22.855625 4.44890625 22.71125 5.1953125 22.5625 C10.18491623 21.60449608 14.89267738 20.72392851 20 21 C21.0891728 23.1783456 21.28032356 24.7203964 21.53515625 27.1328125 C21.66567383 28.34130859 21.66567383 28.34130859 21.79882812 29.57421875 C21.9293457 30.83685547 21.9293457 30.83685547 22.0625 32.125 C22.15337891 32.97449219 22.24425781 33.82398438 22.33789062 34.69921875 C22.5620368 36.7991145 22.78146448 38.89951293 23 41 C21.27192682 41.33895656 19.54248026 41.67091525 17.8125 42 C16.84957031 42.185625 15.88664062 42.37125 14.89453125 42.5625 C12.2065794 42.96877612 9.71228981 43.07933572 7 43 C7.24234375 44.14210937 7.4846875 45.28421875 7.734375 46.4609375 C10.07063532 57.70205708 11.99198557 68.94547668 13.51660156 80.32763672 C13.66709961 81.38354004 13.81759766 82.43944336 13.97265625 83.52734375 C14.09906494 84.46312256 14.22547363 85.39890137 14.35571289 86.36303711 C15.1014057 89.41503713 16.08942896 91.50461157 18 94 C23.18203498 94.5182035 27.85122243 93.75863631 33 93 C33.50734284 95.3736397 34.00602386 97.74857425 34.5 100.125 C34.64308594 100.79015625 34.78617187 101.4553125 34.93359375 102.140625 C35.7612283 106.16056422 36.15330658 109.89904899 36 114 C34.64871743 114.63121136 33.29377953 115.25459835 31.9375 115.875 C31.18339844 116.22304687 30.42929687 116.57109375 29.65234375 116.9296875 C20.49637462 120.62443793 10.06111415 121.65282376 0.36328125 119.3828125 C-5.69076825 116.69476694 -10.51592327 111.54210579 -13.06054688 105.46875 C-16.0530991 95.89258287 -17.70941725 86.1866882 -19.29248047 76.29467773 C-19.75435739 73.41028838 -20.22960775 70.52833746 -20.70703125 67.64648438 C-21.00857979 65.80481297 -21.30938852 63.96302024 -21.609375 62.12109375 C-21.74994324 61.26382187 -21.89051147 60.40654999 -22.03533936 59.52330017 C-22.2261911 58.32538597 -22.2261911 58.32538597 -22.42089844 57.10327148 C-22.53318787 56.40523911 -22.64547729 55.70720673 -22.76116943 54.98802185 C-23 53 -23 53 -23 49 C-29.435 49.495 -29.435 49.495 -36 50 C-37.92538853 43.32531976 -38.52730173 36.93290803 -39 30 C-35.04 29.67 -31.08 29.34 -27 29 C-27.28875 27.60265625 -27.5775 26.2053125 -27.875 24.765625 C-28.25020409 22.92712497 -28.62519286 21.08858099 -29 19.25 C-29.19078125 18.32960938 -29.3815625 17.40921875 -29.578125 16.4609375 C-29.75859375 15.57148437 -29.9390625 14.68203125 -30.125 13.765625 C-30.29257813 12.94868164 -30.46015625 12.13173828 -30.6328125 11.29003906 C-31 9 -31 9 -31 5 C-9.57556182 -0.18333182 -9.57556182 -0.18333182 0 0 Z " fill="#FEFCFB" transform="translate(265,74)"/>
<path d="M0 0 C10.80246762 0.46541244 21.31143205 1.29437745 32 3 C31.34 10.92 30.68 18.84 30 27 C35.28 27.33 40.56 27.66 46 28 C45.0625 42.19642857 45.0625 42.19642857 44 48 C38.22240116 48.12036664 32.72040011 47.8320582 27 47 C27.02610352 47.93767212 27.02610352 47.93767212 27.05273438 48.89428711 C27.17414365 56.87333376 26.40958486 64.64255612 25.5 72.5625 C23.62121721 84.77109574 23.62121721 84.77109574 24 97 C26.16875449 99.65581173 27.95037385 100.86062341 31.3828125 101.31640625 C32.74019531 101.43822266 32.74019531 101.43822266 34.125 101.5625 C35.49011719 101.68818359 35.49011719 101.68818359 36.8828125 101.81640625 C37.58148437 101.87699219 38.28015625 101.93757813 39 102 C39.24091535 109.2274605 38.34495828 115.90294338 37 123 C26.84857657 126.38380781 13.46251838 124.44212669 4 120 C-1.12714287 116.82840201 -5.22402487 112.701161 -7.30688477 106.96557617 C-8.16222399 103.30590533 -8.24432284 99.79403344 -8.21875 96.05859375 C-8.21568848 95.27916412 -8.21262695 94.4997345 -8.20947266 93.69668579 C-8.08163212 83.70877537 -7.02353298 73.8029264 -6 63.875 C-5.80648432 61.93367406 -5.61377181 59.99226788 -5.421875 58.05078125 C-4.95712959 53.36621493 -4.48167239 48.68285485 -4 44 C-7.96 43.67 -11.92 43.34 -16 43 C-16.26404456 36.13484138 -15.25841946 29.74153283 -14 23 C-9.48382401 22.92345464 -5.40914783 22.89771304 -1 24 C-1.01160156 23.44054687 -1.02320313 22.88109375 -1.03515625 22.3046875 C-1.11923413 14.83376696 -0.60066109 7.44390714 0 0 Z " fill="#FEFBFA" transform="translate(1211,41)"/>
<path d="M0 0 C1.54030523 3.08061047 1.61417095 6.42745299 2 9.8125 C2.51337474 14.24436785 3.04011812 18.63767967 4 23 C5.05767578 22.75443359 5.05767578 22.75443359 6.13671875 22.50390625 C9.09658688 21.98300176 11.81061273 21.90133268 14.8125 21.9375 C15.78832031 21.94652344 16.76414062 21.95554687 17.76953125 21.96484375 C18.87361328 21.98224609 18.87361328 21.98224609 20 22 C20.33910994 24.04071515 20.67102704 26.08262621 21 28.125 C21.2784375 29.83042969 21.2784375 29.83042969 21.5625 31.5703125 C21.96956049 34.76137602 22.07809902 37.78817791 22 41 C20.62705778 41.34171006 19.25149882 41.67291117 17.875 42 C17.10929687 42.185625 16.34359375 42.37125 15.5546875 42.5625 C12.66526648 43.0573244 9.92602801 43.06784992 7 43 C7.95269372 51.07762654 8.9451938 59.09514033 10.50390625 67.08203125 C11.01112906 70.06545993 11.36489089 73.05151323 11.69970703 76.05859375 C12.41030825 82.42044448 13.31016882 88.13127743 16 94 C21.28 94 26.56 94 32 94 C32.495 97.8053125 32.495 97.8053125 33 101.6875 C33.15662109 102.87218872 33.15662109 102.87218872 33.31640625 104.08081055 C33.78365447 107.74694762 34.11693271 111.2946948 34 115 C26.15809906 118.52085348 19.17717511 120.36131505 10.5625 120.375 C9.75490234 120.39949219 8.94730469 120.42398438 8.11523438 120.44921875 C1.32158614 120.48206475 -3.76981522 118.72249366 -8.98828125 114.32421875 C-9.64376953 113.51404297 -9.64376953 113.51404297 -10.3125 112.6875 C-10.98732422 111.88892578 -10.98732422 111.88892578 -11.67578125 111.07421875 C-15.51671491 105.05788904 -16.74444425 98.99396264 -17.7890625 92.04296875 C-17.9378183 91.09996414 -18.0865741 90.15695953 -18.23983765 89.18537903 C-18.55157413 87.19839519 -18.85892052 85.21071815 -19.16210938 83.22241211 C-19.62218004 80.20598892 -20.09499193 77.19178834 -20.5703125 74.17773438 C-20.8731444 72.23709583 -21.17525129 70.29634398 -21.4765625 68.35546875 C-21.61510651 67.4665947 -21.75365051 66.57772064 -21.89639282 65.66191101 C-22.78936522 59.78875702 -23.46402662 53.91625297 -24 48 C-24.65194336 48.15339844 -25.30388672 48.30679688 -25.97558594 48.46484375 C-29.80184293 49.36513951 -33.03242757 50 -37 50 C-37.33868777 47.79248152 -37.67071689 45.58394089 -38 43.375 C-38.185625 42.14523438 -38.37125 40.91546875 -38.5625 39.6484375 C-38.95402516 36.3833973 -39.08080924 33.28287549 -39 30 C-36.47524538 28.73762269 -34.68799534 28.90143596 -31.875 28.9375 C-30.96492188 28.94652344 -30.05484375 28.95554687 -29.1171875 28.96484375 C-28.41851562 28.97644531 -27.71984375 28.98804687 -27 29 C-27.18175781 28.13048706 -27.18175781 28.13048706 -27.3671875 27.2434082 C-27.91657407 24.60080599 -28.45835103 21.95669854 -29 19.3125 C-29.19078125 18.40048828 -29.3815625 17.48847656 -29.578125 16.54882812 C-29.75859375 15.66259766 -29.9390625 14.77636719 -30.125 13.86328125 C-30.29257812 13.05157471 -30.46015625 12.23986816 -30.6328125 11.40356445 C-31.0153713 8.89938135 -31.06298509 6.52924498 -31 4 C-29.56720703 3.81824219 -29.56720703 3.81824219 -28.10546875 3.6328125 C-21.14507063 2.73066718 -14.25042382 1.76098925 -7.3671875 0.3671875 C-4.87581346 -0.01926326 -2.51712882 -0.06270428 0 0 Z " fill="#FEFCFB" transform="translate(329,64)"/>
<path d="M0 0 C0.11489021 0.93244537 0.11489021 0.93244537 0.23210144 1.88372803 C4.73447733 38.69008085 4.73447733 38.69008085 9.6875 75.4375 C11.2267495 86.30205427 12.70182925 97.17125721 14.0428772 108.06228638 C14.21947089 109.49516377 14.39761491 110.92785114 14.57748413 112.36032104 C15.44252162 119.27245147 16.23883886 126.02944377 16 133 C12.87696198 133.51277829 9.75133678 134.00776825 6.625 134.5 C5.75488281 134.64308594 4.88476562 134.78617188 3.98828125 134.93359375 C-2.05564276 135.87375971 -7.88700101 136.17771303 -14 136 C-16.80142475 117.33382223 -19.52508425 98.66340765 -21.8984375 79.9375 C-23.94196604 63.83304288 -26.15479225 47.76650494 -28.55337524 31.71115112 C-28.84649342 29.7487803 -29.13858776 27.78625663 -29.43066406 25.82373047 C-29.81551205 23.23904383 -30.2029506 20.65474179 -30.59277344 18.07080078 C-30.77614258 16.83185059 -30.95951172 15.59290039 -31.1484375 14.31640625 C-31.31263184 13.2188501 -31.47682617 12.12129395 -31.64599609 10.99047852 C-31.96578497 8.28903442 -32.06866824 5.71617524 -32 3 C-28.35547656 2.49013736 -24.70921254 1.99394154 -21.0625 1.5 C-19.53012695 1.28537109 -19.53012695 1.28537109 -17.96679688 1.06640625 C-16.45375977 0.86337891 -16.45375977 0.86337891 -14.91015625 0.65625 C-13.53549194 0.46772461 -13.53549194 0.46772461 -12.13305664 0.27539062 C-8.08175494 -0.08071226 -4.06388195 -0.05324278 0 0 Z " fill="#FEFCFC" transform="translate(389,41)"/>
<path d="M0 0 C10.56 0 21.12 0 32 0 C32.24956592 16.42678569 32.24956592 16.42678569 32.35546875 23.61328125 C32.42679413 28.45265408 32.49847363 33.29201916 32.57275391 38.13134766 C32.86835009 57.42368579 33.05629568 76.70465636 33 96 C22.77 96 12.54 96 2 96 C1.50086815 78.99386484 1.50086815 78.99386484 1.2890625 71.578125 C1.14617783 66.57611213 1.00264565 61.57412558 0.85449219 56.57226562 C0.29659285 37.70689364 -0.12217764 18.87644557 0 0 Z " fill="#FDFAF8" transform="translate(785,49)"/>
<path d="M0 0 C7.12642447 0.39820098 14.10199947 1.26099799 21.125 2.5 C21.87128662 2.63059814 22.61757324 2.76119629 23.38647461 2.89575195 C28.73565189 3.86782595 28.73565189 3.86782595 31 5 C29.44005794 16.8166857 27.36152054 28.52214363 25.25 40.25 C24.8949081 42.23261693 24.54009355 44.21528355 24.18554688 46.19799805 C23.6477139 49.20549373 23.10971291 52.21295811 22.57080078 55.22026062 C20.86358592 64.7480288 19.17900586 74.27972672 17.5 83.8125 C17.24253629 85.27311608 16.98505007 86.73372819 16.72753906 88.19433594 C16.15135883 91.46283186 15.5755455 94.73139224 15 98 C8.60742767 98.23096707 2.86938648 97.38748362 -3.375 96.0625 C-4.27605469 95.88009766 -5.17710938 95.69769531 -6.10546875 95.50976562 C-12.69889987 94.15055006 -12.69889987 94.15055006 -15 93 C-15.17490815 86.84802745 -14.53453748 81.18338529 -13.4609375 75.1328125 C-13.29945724 74.19193283 -13.13797699 73.25105316 -12.97160339 72.28166199 C-12.44586284 69.22828346 -11.91062524 66.17665863 -11.375 63.125 C-11.00981916 61.01726058 -10.64515834 58.909431 -10.28100586 56.80151367 C-9.36804779 51.52751196 -8.44686959 46.25498738 -7.52252197 40.98297119 C-7.02939668 38.16781962 -6.53835355 35.35231575 -6.04833984 32.53662109 C-5.2230405 27.79466406 -4.39432207 23.05331708 -3.5625 18.3125 C-3.37491119 17.24216522 -3.37491119 17.24216522 -3.18353271 16.15020752 C-2.83370973 14.15842939 -2.48137517 12.16709286 -2.12890625 10.17578125 C-1.93369385 9.07145752 -1.73848145 7.96713379 -1.53735352 6.8293457 C-1.09940904 4.5234218 -0.60321946 2.26713123 0 0 Z " fill="#FEFCFB" transform="translate(1480,101)"/>
<path d="M0 0 C4.69327902 2.65657303 7.56838922 5.64266766 9.3125 10.875 C10.37132785 22.56283047 8.00955387 36.16157314 0.921875 45.7578125 C-2.63252873 49.46750571 -5.6433459 50.30383361 -10.75 50.5 C-15.78078405 50.22330688 -18.9745578 49.49273856 -22.6875 45.875 C-25.88882179 40.79597986 -26.19697412 36.5746797 -26.125 30.75 C-26.11887695 29.91122314 -26.11275391 29.07244629 -26.10644531 28.20825195 C-25.87589904 18.98196729 -23.79523289 10.0605681 -17.6875 2.875 C-11.92231264 -2.10402544 -6.94035724 -2.11739712 0 0 Z M-10.7421875 9.49609375 C-16.27719254 16.26480474 -17.12698943 25.86296354 -17.21875 34.31640625 C-16.53702932 37.59969337 -15.26816235 38.79811336 -12.6875 40.875 C-10.23261066 41.87526314 -10.23261066 41.87526314 -7.6875 40.875 C-0.92253817 33.33245635 -0.46707522 24.36941559 -0.421875 14.73046875 C-0.47803181 11.6743499 -0.47803181 11.6743499 -2.6875 8.875 C-6.97310236 7.45349005 -6.97310236 7.45349005 -10.7421875 9.49609375 Z " fill="#C78132" transform="translate(1572.6875,140.125)"/>
<path d="M0 0 C5.33340001 2.23033091 7.00783482 5.33345829 9.1730957 10.40307617 C10.60470742 14.89910624 10.49836108 19.25951803 10.375 23.9375 C10.37371094 24.86240234 10.37242187 25.78730469 10.37109375 26.74023438 C10.17638153 42.17658612 10.17638153 42.17658612 5.6875 48 C1.28452108 51.27663548 -2.28131152 52.51134615 -7.8671875 52.39453125 C-11.77758109 51.67118005 -14.96191748 49.50016766 -18 47 C-20.52608048 41.94783904 -19.35552083 34.0816432 -19.4050293 28.46118164 C-19.42661578 26.6172412 -19.46072671 24.77340341 -19.50756836 22.92993164 C-19.57455674 20.26922945 -19.60202358 17.61064511 -19.62109375 14.94921875 C-19.64892441 14.12822189 -19.67675507 13.30722504 -19.70542908 12.46134949 C-19.68533016 6.85455539 -19.68533016 6.85455539 -17.69241333 4.36953735 C-12.02299786 -0.45323047 -7.20272906 -0.69276602 0 0 Z M-10 10 C-10.02465504 14.39656173 -10.04283842 18.7930872 -10.05493164 23.18969727 C-10.05997121 24.68644918 -10.06680287 26.18319616 -10.07543945 27.67993164 C-10.08752159 29.82699807 -10.09323191 31.97399962 -10.09765625 34.12109375 C-10.10289307 35.4145874 -10.10812988 36.70808105 -10.11352539 38.04077148 C-10.33996932 40.88652404 -10.33996932 40.88652404 -9 42 C-5.54187831 42.33338596 -5.54187831 42.33338596 -2 42 C2.67750425 34.98374362 1.89716402 23.66045756 0.62109375 15.609375 C-0.14374132 12.74274906 -0.88202418 11.11797582 -3 9 C-6.89459074 8.78918149 -6.89459074 8.78918149 -10 10 Z " fill="#C78030" transform="translate(886,71)"/>
<path d="M0 0 C3.41606998 1.92615341 5.30985578 3.52397838 6.6875 7.3125 C6.91583776 12.93681968 6.38479766 18.05247105 5.3125 23.5625 C5.03007101 25.05055796 4.74882794 26.53884149 4.46875 28.02734375 C4.33210938 28.75163574 4.19546875 29.47592773 4.0546875 30.22216797 C3.53577564 33.17623937 3.19209734 36.15027083 2.8125 39.125 C2.18561597 43.00318086 1.9475232 44.03297506 -0.8125 47 C-6.30104105 49.88148405 -11.13044683 50.03078033 -17.3125 49.3125 C-20.71185185 47.75500229 -22.66377173 45.52241189 -24.44140625 42.20703125 C-25.65508369 38.17413895 -25.6533785 34.37805869 -25.625 30.1875 C-25.62008545 29.34018311 -25.6151709 28.49286621 -25.61010742 27.61987305 C-25.42805348 17.85524667 -23.65045847 9.03156583 -17.3125 1.3125 C-12.09214278 -3.20240354 -5.96323914 -2.69661182 0 0 Z M-9.3125 7.3125 C-15.44468134 14.46671157 -16.45032517 21.230676 -16.5 30.5 C-16.51417969 31.71042969 -16.52835938 32.92085937 -16.54296875 34.16796875 C-16.56006663 37.47458002 -16.56006663 37.47458002 -14.3125 40.3125 C-11.22884129 40.5627157 -11.22884129 40.5627157 -8.3125 40.3125 C-6.74001266 37.45988308 -5.94065828 35.00911076 -5.4609375 31.79296875 C-5.33203125 30.93509766 -5.203125 30.07722656 -5.0703125 29.19335938 C-4.94398437 28.30455078 -4.81765625 27.41574219 -4.6875 26.5 C-4.5534375 25.62279297 -4.419375 24.74558594 -4.28125 23.84179688 C-3.563041 18.94258545 -3.16392539 14.26273596 -3.3125 9.3125 C-5.2925 8.6525 -7.2725 7.9925 -9.3125 7.3125 Z " fill="#C78030" transform="translate(1419.3125,113.6875)"/>
<path d="M0 0 C3.5677811 2.35149209 5.84221079 4.99692157 7.75 8.8125 C8.16402308 13.31101996 8.28240604 17.45190679 6.625 21.6875 C1.79781351 27.15831135 -3.81787542 28.85449326 -10.6875 30.5625 C-11.50798828 30.78292969 -12.32847656 31.00335938 -13.17382812 31.23046875 C-18.00507919 32.4720193 -22.26520191 33.05402454 -27.25 32.8125 C-28.25553881 28.70966988 -29.2534811 24.60502943 -30.25 20.5 C-30.53617188 19.33275391 -30.82234375 18.16550781 -31.1171875 16.96289062 C-31.38789062 15.84462891 -31.65859375 14.72636719 -31.9375 13.57421875 C-32.18886719 12.54256592 -32.44023438 11.51091309 -32.69921875 10.44799805 C-33.25 7.8125 -33.25 7.8125 -33.25 4.8125 C-32.24839844 4.54695312 -31.24679688 4.28140625 -30.21484375 4.0078125 C-28.87238679 3.65107569 -27.52993939 3.29430293 -26.1875 2.9375 C-25.53072266 2.76347656 -24.87394531 2.58945313 -24.19726562 2.41015625 C-20.95212491 1.54691685 -17.72722259 0.65697645 -14.5078125 -0.30078125 C-9.31057631 -1.71537671 -5.16864066 -1.88854178 0 0 Z M-21.25 10.8125 C-22.34898702 14.10946105 -22.12124444 15.21744903 -21.3125 18.5 C-21.11785156 19.30824219 -20.92320313 20.11648437 -20.72265625 20.94921875 C-20.56667969 21.56410156 -20.41070312 22.17898437 -20.25 22.8125 C-18.01856035 22.38674494 -15.78990225 21.94639613 -13.5625 21.5 C-11.70044922 21.13455078 -11.70044922 21.13455078 -9.80078125 20.76171875 C-6.44381866 19.86431291 -4.10090976 18.75853209 -1.25 16.8125 C-1.43464366 12.47065798 -1.43464366 12.47065798 -3.25 8.8125 C-9.11192177 8.24986019 -15.76655921 8.52365306 -21.25 10.8125 Z " fill="#C78031" transform="translate(91.25,176.1875)"/>
<path d="M0 0 C4.20275524 2.33994771 6.76318826 4.32662679 8.6875 8.875 C9.47277122 13.51979571 9.13611569 16.88430703 7.1875 21.1875 C2.94774521 25.7452364 -1.54830891 28.05043051 -7.8125 28.375 C-13.31803084 28.09023116 -17.91847202 26.20368231 -21.88671875 22.34375 C-24.66617394 19.09441556 -26.21568771 16.88184779 -26.625 12.625 C-26.16143637 7.06223644 -23.81843544 4.23401491 -19.75 0.5625 C-13.51996775 -3.75059925 -6.63361192 -3.06166704 0 0 Z " fill="#FDFAF9" transform="translate(1508.3125,66.125)"/>
<path d="M0 0 C3.4125676 2.84380633 4.70937703 4.27169348 5.44140625 8.625 C5.63218453 13.15444551 5.29773348 16.333077 3.4375 20.5 C-1.47128988 25.53465629 -5.74113026 26.19665437 -12.5625 26.4375 C-17.8598869 26.30385033 -21.03388209 25.76272725 -25 22 C-25.78375 21.29875 -26.5675 20.5975 -27.375 19.875 C-29.80960123 15.5676286 -30.09672631 11.81828424 -29 7 C-26.59319916 2.94608686 -23.59856947 0.00962283 -19.625 -2.5 C-12.71434485 -3.81631527 -6.2102131 -3.53712138 0 0 Z " fill="#FDFBFA" transform="translate(812,13)"/>
<path d="M0 0 C3.52806313 2.63964045 5.06715699 5.8433133 5.80078125 10.08203125 C5.93237743 14.72902119 5.53152448 18.02127495 2.86328125 21.89453125 C-5.43288012 27.8203608 -17.04278265 31.08203125 -27.19921875 31.08203125 C-28.20475756 26.97920113 -29.20269985 22.87456068 -30.19921875 18.76953125 C-30.48539063 17.60228516 -30.7715625 16.43503906 -31.06640625 15.23242188 C-31.33710937 14.11416016 -31.6078125 12.99589844 -31.88671875 11.84375 C-32.13808594 10.81209717 -32.38945313 9.78044434 -32.6484375 8.7175293 C-33.19921875 6.08203125 -33.19921875 6.08203125 -33.19921875 3.08203125 C-9.39948634 -3.92340904 -9.39948634 -3.92340904 0 0 Z M-22.19921875 10.08203125 C-21.53921875 13.38203125 -20.87921875 16.68203125 -20.19921875 20.08203125 C-11.81902244 18.68082617 -11.81902244 18.68082617 -4.19921875 15.08203125 C-2.86617177 12.19016339 -2.86617177 12.19016339 -4.13671875 9.89453125 C-4.48734375 9.29640625 -4.83796875 8.69828125 -5.19921875 8.08203125 C-11.29702876 7.86118501 -16.4156481 8.0703545 -22.19921875 10.08203125 Z " fill="#C78031" transform="translate(80.19921875,129.91796875)"/>
<path d="M0 0 C2.70597362 10.65477114 2.70597362 10.65477114 2 16 C-1.20936597 21.05718274 -4.17804298 23.16148726 -10 25 C-14.00818001 25.5611452 -15.41888013 25.38741325 -18.8125 23.125 C-21.90230988 20.12347041 -22.19283951 18.38821295 -22.3125 14.1875 C-22.258406 10.77466006 -22.07908253 9.15486995 -20.5 6.0625 C-14.70719076 1.28343238 -7.35432633 -0.16714378 0 0 Z M-9 10 C-11.0399719 11.36323743 -11.0399719 11.36323743 -13 13 C-13 13.66 -13 14.32 -13 15 C-10.52733235 14.65555119 -10.52733235 14.65555119 -8 14 C-7.67 13.34 -7.34 12.68 -7 12 C-7.66 11.34 -8.32 10.68 -9 10 Z " fill="#C78132" transform="translate(196,166)"/>
<path d="M0 0 C1.11084961 0.02030273 1.11084961 0.02030273 2.24414062 0.04101562 C4.05891075 0.07614021 5.87330288 0.12994028 7.6875 0.1875 C8.72142268 14.00595868 8.72142268 14.00595868 6.55078125 18.5859375 C3.04324256 22.0679977 -0.60601388 22.6065841 -5.4375 22.875 C-9.37406076 22.64808046 -11.11893956 22.3028918 -14.5625 20.25 C-16.93470107 16.09864813 -17.08571879 12.86080039 -16.3125 8.1875 C-13.19765801 0.64630361 -7.52602386 -0.2623011 0 0 Z M-7.3125 11.1875 C-7.3125 11.8475 -7.3125 12.5075 -7.3125 13.1875 C-5.3325 12.8575 -3.3525 12.5275 -1.3125 12.1875 C-1.3125 11.1975 -1.3125 10.2075 -1.3125 9.1875 C-4.49740007 8.9101499 -4.49740007 8.9101499 -7.3125 11.1875 Z " fill="#C78031" transform="translate(982.3125,104.8125)"/>
<path d="M0 0 C3.25979805 1.21541227 5.26075927 3.02554631 7.375 5.8125 C8.2520535 8.88218724 8.03689339 11.82347924 8 15 C3.75043359 15.50373171 -0.49971856 16.00234046 -4.75 16.5 C-5.9565625 16.64308594 -7.163125 16.78617188 -8.40625 16.93359375 C-9.56640625 17.06894531 -10.7265625 17.20429687 -11.921875 17.34375 C-12.99018555 17.46943359 -14.05849609 17.59511719 -15.15917969 17.72460938 C-18 18 -18 18 -22 18 C-21.73118823 11.95173516 -21.08176177 7.7620554 -17 3 C-11.58522308 -0.90497682 -6.46202997 -0.79573035 0 0 Z " fill="#C78132" transform="translate(467,94)"/>
</svg>
